<?xml version="1.0" standalone="no"?>
<!DOCTYPE svg PUBLIC "-//W3C//DTD SVG 1.1//EN" "http://www.w3.org/Graphics/SVG/1.1/DTD/svg11.dtd" >
<svg>
<metadata>
Created by FontForge 20090914 at Wed Jan 30 23:40:11 2013
 By www-data
Typeface &#194;&#169; 2011 Zdenek Gromnica
</metadata>
<defs>
<font id="NotJustGroovy" horiz-adv-x="1200" >
  <font-face 
    font-family="Not Just Groovy"
    font-weight="400"
    font-stretch="normal"
    units-per-em="2048"
    panose-1="2 0 5 0 0 0 0 0 0 0"
    ascent="1638"
    descent="-410"
    x-height="1050"
    cap-height="1500"
    bbox="-342 -450 2048 1950"
    underline-thickness="150"
    underline-position="-142"
    unicode-range="U+0020-U+2265"
  />
<missing-glyph 
d="M50 1500h1050v-1500h-1050v1500zM150 1400v-1300h850v1300h-850z" />
    <glyph glyph-name=".notdef" 
d="M50 1500h1050v-1500h-1050v1500zM150 1400v-1300h850v1300h-850z" />
    <glyph glyph-name="space" unicode=" " horiz-adv-x="500" 
 />
    <glyph glyph-name="space" unicode="&#xa0;" horiz-adv-x="500" 
 />
    <glyph glyph-name="exclam" unicode="!" horiz-adv-x="300" 
d="M50 300v1200h150v-1200h-150zM125 -25c-66.667 0 -100 33.333 -100 100s33.333 100 100 100s100 -33.333 100 -100s-33.333 -100 -100 -100z" />
    <glyph glyph-name="quotedbl" unicode="&#x22;" horiz-adv-x="672" 
d="M197 1108l-30 -0.000976562l-62 359c-2.66699 15.333 -4 26.333 -4 33c0 24.667 6.83301 43.667 20.5 57s33.5 20 59.5 20s46.167 -6.5 60.5 -19.5s21.5 -31.833 21.5 -56.5c0 -5.33301 -1.33301 -16.666 -4 -33.999zM509 1108l-30 -0.000976562l-62 359
c-2.66699 15.333 -4 26.333 -4 33c0 24.667 6.83301 43.667 20.5 57s33.5 20 59.5 20s46.167 -6.5 60.5 -19.5s21.5 -31.833 21.5 -56.5c0 -5.33301 -1.33301 -16.666 -4 -33.999z" />
    <glyph glyph-name="numbersign" unicode="#" horiz-adv-x="1336" 
d="M596 859l-85 -290h242l86 290h-243zM673 1434h93l-141 -477h242l142 477h92l-141 -477h259l-29 -97h-259l-83 -290h279l-30 -98h-280l-140 -472h-92l139 472h-240l-142 -472h-92l140 472h-273l30 98h271l86 290h-295l29 97h295z" />
    <glyph glyph-name="dollar" unicode="$" horiz-adv-x="1014" 
d="M577 1552l0.00195312 -102c45.333 -5.33301 92.333 -17 141 -35c6.66699 -4 13 -6 19 -6c16.667 0 30.334 15 41.001 45h50l103 -282h-49c-40 89.333 -96 149 -168 179c-49.333 20 -95 33 -137 39v-540c160.667 -62 268.167 -123 322.5 -183s81.5 -148 81.5 -264
c0 -131.333 -39.833 -231.333 -119.5 -300s-174.5 -108.667 -284.5 -120v-239h-73v237c-125.333 2 -214 14.667 -266 38c-6.66699 4 -13 6 -19 6c-16.667 0 -30.334 -15 -41.001 -45h-50v331h49c33.333 -122 84.166 -197.333 152.499 -226s126.5 -43 174.5 -43v635
c-142.667 44.667 -242.334 95.667 -299.001 153c-61.333 60.667 -92 143.667 -92 249c0 110.667 41.667 201 125 271c70 58.667 158.667 92.667 266 102v100h73zM577.002 655l-0.000976562 -609.999c83.333 11.333 153.833 43.333 211.5 96s86.5 125.667 86.5 219
c0 77.333 -23 138.333 -69 183c-41.333 39.333 -117.666 76.666 -228.999 111.999zM504.001 873.001l-0.00195312 520.001c-79.333 -3.33301 -145.666 -27.333 -198.999 -72c-57.333 -48.667 -86 -109.334 -86 -182.001c0 -65.333 18.333 -116.333 55 -153
c34.667 -36 111.334 -73.667 230.001 -113z" />
    <glyph glyph-name="percent" unicode="%" horiz-adv-x="1610" 
d="M449 1459c65.333 0 128.833 -16.333 190.5 -49s109.834 -79.167 144.501 -139.5s52 -123.833 52 -190.5c0 -66 -16.833 -128.833 -50.5 -188.5s-81.334 -106.334 -143.001 -140.001s-126.167 -50.5 -193.5 -50.5c-66.667 0 -130.834 16.833 -192.501 50.5
s-109.5 80.334 -143.5 140.001s-51 122.5 -51 188.5c0 66.667 17.333 130.167 52 190.5s82.834 106.833 144.501 139.5s125.167 49 190.5 49zM206 1066c8.66699 -61.333 27.168 -119.165 55.501 -173.498s63.833 -95.833 106.5 -124.5c38 -26.667 76 -40 114 -40
c4.66699 0 9 0.333008 13 1c42 2 80.333 19.667 115 53s59 78.666 73 135.999c8.66699 36 13 73 13 111c0 21.333 -1.33301 43 -4 65c-8 62 -26.667 120.5 -56 175.5s-65 96.5 -107 124.5c-38.667 25.333 -77 38 -115 38h-11c-40.667 -2 -78.334 -19.333 -113.001 -52
s-59 -77.667 -73 -135c-10 -38.667 -15 -77.667 -15 -117c0 -20.667 1.33301 -41.334 4 -62.001zM297.001 -28.999l940 1461h84l-938 -1461h-86zM1161 738.001c64.667 0 127.999 -16.5 189.999 -49.5s110.333 -79.667 145 -140s52 -123.5 52 -189.5
c0 -66.667 -16.833 -129.834 -50.5 -189.501s-81.334 -106.167 -143.001 -139.5s-126.167 -50 -193.5 -50s-131.666 16.667 -192.999 50s-109 79.833 -143 139.5s-51 122.834 -51 189.501c0 66 17.333 129.167 52 189.5s82.834 107 144.501 140s125.167 49.5 190.5 49.5z
M918 344.001c8.66699 -61.333 27.168 -119.165 55.501 -173.498s63.833 -95.833 106.5 -124.5c39.333 -26 78 -39 116 -39h11c42 2 80.333 19.667 115 53s59 78.666 73 135.999c8.66699 36 13 73 13 111c0 21.333 -1.33301 43 -4 65c-8 62 -26.667 120.5 -56 175.5
s-65 96.5 -107 124.5c-38.667 25.333 -77 38 -115 38h-11c-40.667 -2 -78.334 -19.333 -113.001 -52s-59 -77.667 -73 -135c-10 -38.667 -15 -77.667 -15 -117c0 -20.667 1.33301 -41.334 4 -62.001z" />
    <glyph glyph-name="ampersand" unicode="&#x26;" horiz-adv-x="1683" 
d="M1051 196l-554 682.998c-78.667 0 -138.5 -28.667 -179.5 -86s-61.5 -125.333 -61.5 -204c0 -60.667 11.833 -121.167 35.5 -181.5s57.5 -115.166 101.5 -164.499c48 -55.333 103 -97.666 165 -126.999s126.667 -44 194 -44c58.667 0 115 11.167 169 33.5
s97.333 52.5 130 90.5zM1394 -0.00195312c-37.333 0 -83.666 8.33398 -138.999 25.001s-111 60.667 -167 132c-44.667 -49.333 -103 -90.5 -175 -123.5s-152.333 -49.5 -241 -49.5c-152.667 0 -277.5 50.167 -374.5 150.5s-145.5 228.833 -145.5 385.5
c0 107.333 25.333 196.166 76 266.499s125.667 120.833 225 151.5c-28 40.667 -48.833 79.334 -62.5 116.001s-20.5 73.667 -20.5 111c0 70 25.667 135.667 77 197s112 92 182 92c45.333 0 92.666 -13 141.999 -39c6 -4 12 -6 18 -6c15.333 0 28 15 38 45h46l96 -281h-46
c-36.667 88.667 -88.334 148 -155.001 178c-56.667 24.667 -103.667 37 -141 37c-43.333 0 -78.666 -15.167 -105.999 -45.5s-41 -69.5 -41 -117.5c0 -87.333 34 -176.333 102 -267l531 -670c65.333 97.333 105.666 178.666 120.999 243.999c11.333 52 17 95.333 17 130
c0 64.667 -20.667 97 -62 97h-90v50h443v-50h-90c-63.333 0 -111.666 -75.667 -144.999 -227c-20.667 -88 -72.334 -185.333 -155.001 -292c72.667 -90.667 155.334 -136 248.001 -136h16c95.333 11.333 159.333 54 192 128l49 -1l-103 -231h-160z" />
    <glyph glyph-name="quotesingle" unicode="'" horiz-adv-x="346" 
d="M197 1108l-30 -0.000976562l-62 359c-2.66699 15.333 -4 26.333 -4 33c0 24.667 6.83301 43.667 20.5 57s33.5 20 59.5 20s46.167 -6.5 60.5 -19.5s21.5 -31.833 21.5 -56.5c0 -5.33301 -1.33301 -16.666 -4 -33.999z" />
    <glyph glyph-name="parenleft" unicode="(" horiz-adv-x="758" 
d="M252 601c1.33301 184.667 34.5 361.333 99.5 530s154.5 316 268.5 442h80c-114.667 -161.333 -191.334 -307.333 -230.001 -438c-38 -128.667 -57 -303 -57 -523v-22c0 -220 19 -394 57 -522c38.667 -130.667 115.334 -276.667 230.001 -438h-80
c-114 126 -203.5 273.167 -268.5 441.5s-98.167 344.833 -99.5 529.5z" />
    <glyph glyph-name="parenright" unicode=")" horiz-adv-x="758" 
d="M138 -370l-80 0.000976562c114.667 161.333 191.334 307.333 230.001 438c38 128 57 302 57 522v22c0 220 -19 394.333 -57 523c-38.667 130.667 -115.334 276.667 -230.001 438h80c114 -126 203.5 -273.333 268.5 -442s98.167 -345.334 99.5 -530.001
c-1.33301 -184.667 -34.5 -361.167 -99.5 -529.5s-154.5 -315.5 -268.5 -441.5z" />
    <glyph glyph-name="asterisk" unicode="*" horiz-adv-x="1024" 
d="M498 1294c-2.66699 47.333 -14.9971 90.667 -36.9971 130c-24.667 44 -37 72 -37 84c0 21.333 7.83301 38.5 23.5 51.5s36.5 19.5 62.5 19.5c24.667 0 45.167 -6 61.5 -18s24.5 -27.667 24.5 -47c0 -14 -12 -43.667 -36 -89c-22 -40.667 -34.333 -84 -37 -130
c44 16.667 81.667 41.667 113 75c34 36.667 57 57 69 61c7.33301 2 14.333 3 21 3c12 0 23.667 -3.33301 35 -10c17.333 -11.333 30 -29 38 -53c4 -12.667 6 -24.667 6 -36c0 -10 -1.33301 -19.333 -4 -28c-6.66699 -20 -19.334 -32.667 -38.001 -38
c-4 -1.33301 -10.333 -2 -19 -2c-16.667 0 -42 3 -76 9c-18.667 3.33301 -37 5 -55 5c-27.333 0 -54.333 -3.66699 -81 -11c29.333 -36.667 64.333 -64.334 105 -83.001c45.333 -21.333 71.666 -37 78.999 -47c8.66699 -12 13 -24.667 13 -38c0 -6 -0.666992 -11.667 -2 -17
c-5.33301 -20 -18.333 -37.667 -39 -53c-19.333 -14.667 -39 -22 -59 -22c-0.666992 0 -1 0.333008 -1 1c-20.667 0 -36.667 7.66699 -48 23c-8 11.333 -15.333 42.666 -22 93.999c-6.66699 44.667 -22.334 86.334 -47.001 125.001
c-25.333 -38.667 -40.666 -80 -45.999 -124c-6 -50 -12.667 -80 -20 -90c-12.667 -16.667 -29 -25.667 -49 -27h-5c-18.667 0 -37.667 7 -57 21c-20 14 -33 31 -39 51c-2.66699 6.66699 -4 13.334 -4 20.001c0 11.333 3.66699 22 11 32
c8.66699 11.333 36.334 28.333 83.001 51c40.667 19.333 75.667 46.666 105 81.999c-27.333 7.33301 -54 11 -80 11c-18 0 -35.667 -1.66699 -53 -5c-36 -7.33301 -62 -11 -78 -11c-6 0 -10.667 0.666992 -14 2c-20 6 -33.667 18.667 -41 38c-4 8.66699 -6 18.334 -6 29.001
c0 11.333 2 23.333 6 36c7.33301 23.333 19.333 41 36 53c11.333 8 22.666 12 33.999 12c6 0 12 -1 18 -3c13.333 -4 38 -24.667 74 -62c31.333 -32.667 68.666 -57.667 111.999 -75z" />
    <glyph glyph-name="plus" unicode="+" horiz-adv-x="1014" 
d="M437 647h-350v140h350v369l1 1h139v-370h349l1 -1v-139h-350v-370h-140v370z" />
    <glyph glyph-name="comma" unicode="," horiz-adv-x="400" 
d="M163 258c29.333 0 58.832 -21.833 88.499 -65.5s44.5 -94.167 44.5 -151.5c0 -72.667 -23.667 -148.167 -71 -226.5s-93.666 -117.5 -138.999 -117.5c48.667 57.333 77.667 135 87 233c0 79.333 -43 147 -129 203z" />
    <glyph glyph-name="hyphen" unicode="-" horiz-adv-x="670" 
d="M156 409c-26.667 0 -40 9.33301 -40 28v83c0 19.333 13.667 29 41 29h356c27.333 0 41 -9.66699 41 -29v-83c0 -18.667 -13.333 -28 -40 -28h-358z" />
    <glyph glyph-name="hyphen" unicode="&#xad;" horiz-adv-x="670" 
d="M156 409c-26.667 0 -40 9.33301 -40 28v83c0 19.333 13.667 29 41 29h356c27.333 0 41 -9.66699 41 -29v-83c0 -18.667 -13.333 -28 -40 -28h-358z" />
    <glyph glyph-name="period" unicode="." horiz-adv-x="350" 
d="M150 0c-66.667 0 -100 33.333 -100 100s33.333 100 100 100s100 -33.333 100 -100s-33.333 -100 -100 -100z" />
    <glyph glyph-name="slash" unicode="/" horiz-adv-x="569" 
d="M93 -50h-80l541 1484h80z" />
    <glyph glyph-name="zero" unicode="0" 
d="M50 1150c0 233.333 116.667 350 350 350h350c233.333 0 350 -116.667 350 -350v-800c0 -233.333 -116.667 -350 -350 -350h-350c-233.333 0 -350 116.667 -350 350v800zM400 1350c-133.333 0 -200 -66.667 -200 -200v-800c0 -133.333 66.667 -200 200 -200h350
c133.333 0 200 66.667 200 200v800c0 133.333 -66.667 200 -200 200h-350z" />
    <glyph glyph-name="one" unicode="1" horiz-adv-x="300" 
d="M50 0v1500h150v-1500h-150z" />
    <glyph glyph-name="two" unicode="2" 
d="M50 0v400c0 266.667 116.667 400 350 400h300c166.667 0 250 83.333 250 250c0 200 -83.333 300 -250 300h-650v150h650c266.667 0 400 -150 400 -450c0 -266.667 -133.333 -400 -400 -400h-300c-133.333 0 -200 -83.333 -200 -250v-250h900v-150h-1050z" />
    <glyph glyph-name="three" unicode="3" 
d="M700 850c166.667 0 250 83.333 250 250s-83.333 250 -250 250h-650v150h650c266.667 0 400 -133.333 400 -400c0 -148 -41 -255 -123 -321c82 -68 123 -186 123 -354c0 -283.333 -116.667 -425 -350 -425h-700v150h700c133.333 0 200 91.667 200 275
s-66.667 275 -200 275h-225v150h175z" />
    <glyph glyph-name="four" unicode="4" 
d="M50 1500h150v-750h750v750h150v-1500h-150v600h-900v900z" />
    <glyph glyph-name="five" unicode="5" 
d="M1100 1500v-150h-900v-500h500c266.667 0 400 -133.333 400 -400c0 -300 -133.333 -450 -400 -450h-650v150h650c166.667 0 250 100 250 300c0 166.667 -83.333 250 -250 250h-650v800h1050z" />
    <glyph glyph-name="six" unicode="6" 
d="M1100 350c0 -233.333 -116.667 -350 -350 -350h-350c-233.333 0 -350 116.667 -350 350v800c0 233.333 116.667 350 350 350h700v-150h-700c-133.333 0 -200 -66.667 -200 -200v-100h550c233.333 0 350 -116.667 350 -350v-350zM750 150c133.333 0 200 66.667 200 200
v350c0 133.333 -66.667 200 -200 200h-550v-550c0 -133.333 66.667 -200 200 -200h350z" />
    <glyph glyph-name="seven" unicode="7" 
d="M1100 0h-150v1350h-900v150h1050v-1500z" />
    <glyph glyph-name="eight" unicode="8" 
d="M475 850h175c200 0 300 83.333 300 250s-91.667 250 -275 250h-200c-183.333 0 -275 -83.333 -275 -250s91.667 -250 275 -250zM700 150c166.667 0 250 91.667 250 275s-83.333 275 -250 275h-250c-166.667 0 -250 -91.667 -250 -275s83.333 -275 250 -275h250zM450 0
c-266.667 0 -400 141.667 -400 425c0 164.667 45.333 281.667 136 351c-90.667 65.333 -136 173.333 -136 324c0 266.667 141.667 400 425 400h200c283.333 0 425 -133.333 425 -400c0 -148.667 -46.333 -255.667 -139 -321c92.667 -68.667 139 -186.667 139 -354
c0 -283.333 -133.333 -425 -400 -425h-250z" />
    <glyph glyph-name="nine" unicode="9" 
d="M50 1150c0 233.333 116.667 350 350 350h350c233.333 0 350 -116.667 350 -350v-800c0 -233.333 -116.667 -350 -350 -350h-700v150h700c133.333 0 200 66.667 200 200v100h-550c-233.333 0 -350 116.667 -350 350v350zM400 1350c-133.333 0 -200 -66.667 -200 -200v-350
c0 -133.333 66.667 -200 200 -200h550v550c0 133.333 -66.667 200 -200 200h-350z" />
    <glyph glyph-name="colon" unicode=":" horiz-adv-x="350" 
d="M150 0c-66.667 0 -100 33.333 -100 100s33.333 100 100 100s100 -33.333 100 -100s-33.333 -100 -100 -100zM150 825c-66.667 0 -100 33.333 -100 100s33.333 100 100 100s100 -33.333 100 -100s-33.333 -100 -100 -100z" />
    <glyph glyph-name="semicolon" unicode=";" horiz-adv-x="350" 
d="M150 825c-66.667 0 -100 33.333 -100 100s33.333 100 100 100s100 -33.333 100 -100s-33.333 -100 -100 -100zM144 261c29.333 0 58.832 -21.833 88.499 -65.5s44.5 -94.167 44.5 -151.5c0 -72.667 -23.667 -148.167 -71 -226.5s-93.666 -117.5 -138.999 -117.5
c48.667 57.333 77.667 135 87 233c0 79.333 -43 147 -129 203z" />
    <glyph glyph-name="semicolon" unicode="&#x37e;" horiz-adv-x="350" 
d="M150 825c-66.667 0 -100 33.333 -100 100s33.333 100 100 100s100 -33.333 100 -100s-33.333 -100 -100 -100zM144 261c29.333 0 58.832 -21.833 88.499 -65.5s44.5 -94.167 44.5 -151.5c0 -72.667 -23.667 -148.167 -71 -226.5s-93.666 -117.5 -138.999 -117.5
c48.667 57.333 77.667 135 87 233c0 79.333 -43 147 -129 203z" />
    <glyph glyph-name="less" unicode="&#x3c;" horiz-adv-x="1014" 
d="M927 1074l-625 -359l625 -355v-167l-840 481v83l840 484v-167z" />
    <glyph glyph-name="equal" unicode="=" horiz-adv-x="1014" 
d="M87 631h840v-140h-840v140zM87 943h840v-140h-840v140z" />
    <glyph glyph-name="greater" unicode="&#x3e;" horiz-adv-x="1014" 
d="M87 1241l840 -484v-83l-840 -481v167l625 355l-625 359v167z" />
    <glyph glyph-name="question" unicode="?" 
d="M425 -25c-66.667 0 -100 33.333 -100 100s33.333 100 100 100s100 -33.333 100 -100s-33.333 -100 -100 -100zM350 400c0 266.667 116.667 400 350 400c166.667 0 250 83.333 250 250c0 200 -83.333 300 -250 300h-650v150h650c266.667 0 400 -150 400 -450
c0 -266.667 -133.333 -400 -400 -400c-133.333 0 -200 -83.333 -200 -250v-100h-150v100z" />
    <glyph glyph-name="at" unicode="@" horiz-adv-x="2019" 
d="M972 622c-55.333 -6.66699 -105.667 -33.333 -151 -80s-68 -113 -68 -199c0 -71.333 21.333 -136 64 -194s103.667 -87 183 -87c64.667 3.33301 106.667 59 126 167v476c-36 -42 -87.333 -69.667 -154 -83zM1360 29.001c-42 0.666992 -75.5107 6.66895 -100.511 18.002
s-45.5 29.333 -61.5 54c-19.333 -24.667 -46.666 -46.167 -81.999 -64.5s-79.666 -27.5 -132.999 -27.5c-96 0 -181.5 33.5 -256.5 100.5s-112.5 144.833 -112.5 233.5c0.666992 58 18.334 113.5 53.001 166.5s78.834 91.333 132.501 115s111.5 40.167 173.5 49.5
c44.667 10.667 81.334 24.834 110.001 42.501s43 42.5 43 74.5c-1.33301 46 -15 87.667 -41 125s-69 56 -129 56c-48 0 -88.5 -19.667 -121.5 -59s-49.833 -81 -50.5 -125h-45v159c0 13.333 24 26.666 72 39.999c48.667 13.333 108 20 178 20
c72.667 -1.33301 137.167 -22.833 193.5 -64.5s84.5 -94.167 84.5 -157.5v-589c0 -78 31.333 -117 94 -117c123.333 23.333 212.333 87.166 267 191.499s82 231.833 82 382.5c-13.333 223.333 -90.666 403.333 -231.999 540c-131.333 125.333 -291.333 188 -480 188
c-136.667 0 -267.5 -45.833 -392.5 -137.5s-214.833 -210.167 -269.5 -355.5c-44.667 -118.667 -67 -239 -67 -361c0 -208.667 43.167 -379.167 129.5 -511.5s188 -229.166 305 -290.499s223.167 -92 318.5 -92c182.667 0 374.334 69.333 575.001 208v-75
c-175.333 -122.667 -365.666 -184 -570.999 -184c-160 0 -313.667 40.833 -461 122.5s-261.666 195.667 -342.999 342s-122 300.166 -122 461.499s41.333 316.166 124 464.499s197.834 262.333 345.501 342s299.834 119.5 456.501 119.5c241.333 0 444.333 -76.667 609 -230
s247 -342 247 -566c0 -180 -58.667 -326.333 -176 -439c-116.667 -112 -232 -168.667 -346 -170z" />
    <glyph glyph-name="A" unicode="A" horiz-adv-x="1150" 
d="M551 1292l-198 -692h396zM310 450l-129 -450h-156l430 1500h192l430 -1500h-156l-129 450h-482z" />
    <glyph glyph-name="B" unicode="B" 
d="M200 1350v-500h400c216.667 0 325 83.333 325 250s-108.333 250 -325 250h-400zM200 700v-550h400c233.333 0 350 91.667 350 275s-116.667 275 -350 275h-400zM50 0v1500h550c316.667 0 475 -133.333 475 -400c0 -148.667 -49.333 -256 -148 -322
c115.333 -68.667 173 -186.334 173 -353.001c0 -283.333 -166.667 -425 -500 -425h-550z" />
    <glyph glyph-name="C" unicode="C" 
d="M750 150c133.333 0 200 66.667 200 200h150c0 -233.333 -116.667 -350 -350 -350h-350c-233.333 0 -350 116.667 -350 350v800c0 233.333 116.667 350 350 350h350c233.333 0 350 -116.667 350 -350h-150c0 133.333 -66.667 200 -200 200h-350
c-133.333 0 -200 -66.667 -200 -200v-800c0 -133.333 66.667 -200 200 -200h350z" />
    <glyph glyph-name="D" unicode="D" 
d="M600 1350h-400v-1200h400c233.333 0 350 116.667 350 350v500c0 233.333 -116.667 350 -350 350zM600 0h-550v1500h550c333.333 0 500 -166.667 500 -500v-500c0 -333.333 -166.667 -500 -500 -500z" />
    <glyph glyph-name="E" unicode="E" 
d="M1100 1500v-150h-900v-500h750v-150h-750v-550h900v-150h-1050v1500h1050z" />
    <glyph glyph-name="F" unicode="F" 
d="M1100 1500v-150h-900v-500h750v-150h-750v-700h-150v1500h1050z" />
    <glyph glyph-name="G" unicode="G" 
d="M900 673v-2l-500 -115v155l500 114c133.333 -4 200 -89.333 200 -256v-219c0 -233.333 -116.667 -350 -350 -350h-350c-233.333 0 -350 116.667 -350 350v800c0 233.333 116.667 350 350 350h350c233.333 0 350 -116.667 350 -350h-150c0 133.333 -66.667 200 -200 200
h-350c-133.333 0 -200 -66.667 -200 -200v-800c0 -133.333 66.667 -200 200 -200h350c133.333 0 200 66.667 200 200v269c0 28 -16.667 46 -50 54z" />
    <glyph glyph-name="H" unicode="H" 
d="M200 700v-700h-150v1500h150v-650h750v650h150v-1500h-150v700h-750z" />
    <glyph glyph-name="I" unicode="I" horiz-adv-x="300" 
d="M50 0v1500h150v-1500h-150z" />
    <glyph glyph-name="J" unicode="J" 
d="M750 150c133.333 0 200 66.667 200 200v1150h150v-1150c0 -233.333 -116.667 -350 -350 -350h-350c-233.333 0 -350 116.667 -350 350v150h150v-150c0 -133.333 66.667 -200 200 -200h350z" />
    <glyph glyph-name="K" unicode="K" horiz-adv-x="1150" 
d="M363 751l737 -682v-69h-146l-701 649l-53 -49v-600h-150v1500h150v-695l751 695h149v-67z" />
    <glyph glyph-name="L" unicode="L" 
d="M50 1500h150v-1350h900v-150h-1050v1500z" />
    <glyph glyph-name="M" unicode="M" horiz-adv-x="1525" 
d="M1263 1500l-525 -1301l-526 1301h-162v-1500h150v1129l457 -1129h162l456 1129v-1129h150v1500h-162z" />
    <glyph glyph-name="N" unicode="N" 
d="M950 284v1216h150v-1500h-151l-749 1216v-1216h-150v1500h151z" />
    <glyph glyph-name="O" unicode="O" 
d="M50 1150c0 233.333 116.667 350 350 350h350c233.333 0 350 -116.667 350 -350v-800c0 -233.333 -116.667 -350 -350 -350h-350c-233.333 0 -350 116.667 -350 350v800zM400 1350c-133.333 0 -200 -66.667 -200 -200v-800c0 -133.333 66.667 -200 200 -200h350
c133.333 0 200 66.667 200 200v800c0 133.333 -66.667 200 -200 200h-350z" />
    <glyph glyph-name="P" unicode="P" 
d="M200 450v-450h-150v1500h700c233.333 0 350 -116.667 350 -350v-350c0 -233.333 -116.667 -350 -350 -350h-550zM200 1350v-750h550c133.333 0 200 66.667 200 200v350c0 133.333 -66.667 200 -200 200h-550z" />
    <glyph glyph-name="Q" unicode="Q" 
d="M400 1350c-133.333 0 -200 -66.667 -200 -200v-800c0 -133.333 66.667 -200 200 -200h350c30.667 0 58 3.66699 82 11l-182 181l106 106l183 -182c7.33301 24 11 52 11 84v800c0 133.333 -66.667 200 -200 200h-350zM50 1150c0 233.333 116.667 350 350 350h350
c233.333 0 350 -116.667 350 -350v-800c0 -82 -14.333 -149.333 -43 -202l158 -158l-106 -106l-158 158c-53.333 -28 -120.333 -42 -201 -42h-350c-233.333 0 -350 116.667 -350 350v800z" />
    <glyph glyph-name="R" unicode="R" 
d="M200 1350v-750h550c133.333 0 200 66.667 200 200v350c0 133.333 -66.667 200 -200 200h-550zM200 450v-450h-150v1500h700c233.333 0 350 -116.667 350 -350v-350c0 -231.333 -114.667 -348 -344 -350l394 -394v-56h-156l-450 450h-344z" />
    <glyph glyph-name="S" unicode="S" 
d="M50 0v150h700c133.333 0 200 83.333 200 250s-66.667 250 -200 250h-300c-266.667 0 -400 133.333 -400 400c0 300 133.333 450 400 450h650v-150h-650c-166.667 0 -250 -100 -250 -300c0 -166.667 83.333 -250 250 -250h300c233.333 0 350 -133.333 350 -400
s-116.667 -400 -350 -400h-700z" />
    <glyph glyph-name="T" unicode="T" 
d="M650 1350v-1350h-150v1350h-450v150h1050v-150h-450z" />
    <glyph glyph-name="U" unicode="U" 
d="M750 150c133.333 0 200 66.667 200 200v1150h150v-1150c0 -233.333 -116.667 -350 -350 -350h-350c-233.333 0 -350 116.667 -350 350v1150h150v-1150c0 -133.333 66.667 -200 200 -200h350z" />
    <glyph glyph-name="V" unicode="V" horiz-adv-x="1150" 
d="M455 0l-430 1500h156l370 -1292l370 1292h156l-430 -1500h-192z" />
    <glyph glyph-name="W" unicode="W" horiz-adv-x="1650" 
d="M1072 0l-272 1176l-272 -1176h-156l-347 1500h153l272 -1176l272 1176h156l272 -1176l272 1176h153l-347 -1500h-156z" />
    <glyph glyph-name="X" unicode="X" 
d="M586 606l-365 -605h-175l452 750l-452 750h175l365 -605l364 605h175l-452 -750l452 -750h-175z" />
    <glyph glyph-name="Y" unicode="Y" 
d="M675 750v-750h-175v750l-452 750h175l365 -605l364 605h175z" />
    <glyph glyph-name="Z" unicode="Z" 
d="M224 150h876v-150h-1050v166l871 1184h-871v150h1050v-160z" />
    <glyph glyph-name="bracketleft" unicode="[" horiz-adv-x="758" 
 />
    <glyph glyph-name="backslash" unicode="\" horiz-adv-x="569" 
 />
    <glyph glyph-name="bracketright" unicode="]" horiz-adv-x="758" 
 />
    <glyph glyph-name="asciicircum" unicode="^" horiz-adv-x="1014" 
 />
    <glyph glyph-name="underscore" unicode="_" 
d="M0 -300v150h1200v-150h-1200z" />
    <glyph glyph-name="grave" unicode="`" horiz-adv-x="650" 
d="M220 1351l343 -251h-170l-343 251h170z" />
    <glyph glyph-name="a" unicode="a" 
d="M750 150c133.333 0 200 66.666 200 199.999v215l-709 -163c-27.333 -9.33301 -41 -26.666 -41 -51.999c0 -133.333 66.667 -200 200 -200h350zM400 899.999c-133.333 0 -200 -66.666 -200 -199.999h-150c0 233.333 116.667 350 350 350h350
c233.333 0 350 -116.667 350 -350v-350c0 -233.333 -116.667 -350 -350 -350h-350c-233.333 0 -350 100 -350 300c0 145.333 50.667 228.666 152 249.999l747 170c-6 120 -72.333 180 -199 180h-350z" />
    <glyph glyph-name="b" unicode="b" 
d="M1100 350c0 -233.333 -116.667 -350 -350 -350h-350c-233.333 0 -350 116.667 -350 350v1150h150v-450h550c233.333 0 350 -116.667 350 -350v-350zM750 150c133.333 0 200 66.667 200 200v350c0 133.333 -66.667 200 -200 200h-550v-550
c0 -133.333 66.667 -200 200 -200h350z" />
    <glyph glyph-name="c" unicode="c" 
d="M750 150c133.333 0 200 66.667 200 200h150c0 -233.333 -116.667 -350 -350 -350h-350c-233.333 0 -350 116.667 -350 350v350c0 233.333 116.667 350 350 350h350c233.333 0 350 -116.667 350 -350h-150c0 133.333 -66.667 200 -200 200h-350
c-133.333 0 -200 -66.667 -200 -200v-350c0 -133.333 66.667 -200 200 -200h350z" />
    <glyph glyph-name="d" unicode="d" 
d="M200 350c0 -133.333 66.667 -200 200 -200h350c133.333 0 200 66.667 200 200v550h-550c-133.333 0 -200 -66.667 -200 -200v-350zM400 0c-233.333 0 -350 116.667 -350 350v350c0 233.333 116.667 350 350 350h550v450h150v-1150c0 -233.333 -116.667 -350 -350 -350
h-350z" />
    <glyph glyph-name="e" unicode="e" horiz-adv-x="1125" 
d="M375 900c-133.333 0 -200 -66.666 -200 -199.999v-215l709 163c27.333 9.33301 41 26.666 41 51.999c0 133.333 -66.667 200 -200 200h-350zM725 150.001c133.333 0 200 66.666 200 199.999h150c0 -233.333 -116.667 -350 -350 -350h-350
c-233.333 0 -350 116.667 -350 350v350c0 233.333 116.667 350 350 350h350c233.333 0 350 -100 350 -300c0 -145.333 -50.667 -228.666 -152 -249.999l-747 -170c6 -120 72.333 -180 199 -180h350z" />
    <glyph glyph-name="f" unicode="f" horiz-adv-x="750" 
d="M200 1050v100c0 233.333 116.667 350 350 350h100v-150h-100c-133.333 0 -200 -66.667 -200 -200v-100h250v-150h-250v-900h-150v900h-150v150h150z" />
    <glyph glyph-name="g" unicode="g" 
d="M50 700c0 233.333 116.667 350 350 350h350c233.333 0 350 -116.667 350 -350v-800c0 -233.333 -116.667 -350 -350 -350h-700v150h700c133.333 0 200 66.667 200 200v100h-550c-233.333 0 -350 116.667 -350 350v350zM400 900c-133.333 0 -200 -66.667 -200 -200v-350
c0 -133.333 66.667 -200 200 -200h550v550c0 133.333 -66.667 200 -200 200h-350z" />
    <glyph glyph-name="h" unicode="h" 
d="M50 1500h150v-450h400c333.333 0 500 -166.667 500 -500v-550h-150v550c0 233.333 -116.667 350 -350 350h-400v-900h-150v1500z" />
    <glyph glyph-name="i" unicode="i" horiz-adv-x="300" 
d="M50 0v1050h150v-1050h-150zM125 1175c-66.667 0 -100 33.333 -100 100s33.333 100 100 100s100 -33.333 100 -100s-33.333 -100 -100 -100z" />
    <glyph glyph-name="j" unicode="j" horiz-adv-x="300" 
d="M200 -100c0 -233.333 -116.667 -350 -350 -350h-50v150h50c133.333 0 200 66.667 200 200v1150h150v-1150zM125 1175c-66.667 0 -100 33.333 -100 100s33.333 100 100 100s100 -33.333 100 -100s-33.333 -100 -100 -100z" />
    <glyph glyph-name="k" unicode="k" 
d="M521 524l579 -452v-72h-150l-550 429l-200 -156v-273h-150v1500h150v-1037l750 587h150v-73z" />
    <glyph glyph-name="l" unicode="l" horiz-adv-x="300" 
d="M50 0v1500h150v-1500h-150z" />
    <glyph glyph-name="m" unicode="m" horiz-adv-x="1800" 
d="M450 900h-250.001v-900h-150v1050h400c158.667 0 279.334 -37.667 362.001 -113c25.333 75.333 88 113 188 113h200c333.333 0 500 -166.667 500 -500v-550h-150v550c0 233.333 -116.667 350 -350 350h-200c-33.333 0 -50 -16.667 -50 -50v-850h-150v550
c0 233.333 -116.667 350 -350 350z" />
    <glyph glyph-name="n" unicode="n" 
d="M600 900h-400v-900h-150v1050h550c333.333 0 500 -166.667 500 -500v-550h-150v550c0 233.333 -116.667 350 -350 350z" />
    <glyph glyph-name="o" unicode="o" 
d="M50 700c0 233.333 116.667 350 350 350h350c233.333 0 350 -116.667 350 -350v-350c0 -233.333 -116.667 -350 -350 -350h-350c-233.333 0 -350 116.667 -350 350v350zM400 900c-133.333 0 -200 -66.667 -200 -200v-350c0 -133.333 66.667 -200 200 -200h350
c133.333 0 200 66.667 200 200v350c0 133.333 -66.667 200 -200 200h-350z" />
    <glyph glyph-name="p" unicode="p" 
d="M950 700c0 133.333 -66.667 200 -200 200h-350c-133.333 0 -200 -66.667 -200 -200v-550h550c133.333 0 200 66.667 200 200v350zM750 1050c233.333 0 350 -116.667 350 -350v-350c0 -233.333 -116.667 -350 -350 -350h-550v-450h-150v1150
c0 233.333 116.667 350 350 350h350z" />
    <glyph glyph-name="q" unicode="q" 
d="M50 700c0 233.333 116.667 350 350 350h350c233.333 0 350 -116.667 350 -350v-1150h-150v450h-550c-233.333 0 -350 116.667 -350 350v350zM400 900c-133.333 0 -200 -66.667 -200 -200v-350c0 -133.333 66.667 -200 200 -200h550v550c0 133.333 -66.667 200 -200 200
h-350z" />
    <glyph glyph-name="r" unicode="r" horiz-adv-x="1050" 
d="M550 1050h400v-150h-400c-233.333 0 -350 -116.667 -350 -350v-550h-150v550c0 333.333 166.667 500 500 500z" />
    <glyph glyph-name="s" unicode="s" 
d="M50 0v150h750c100 0 150 50 150 150s-50 150 -150 150h-450c-200 0 -300 100 -300 300s100 300 300 300h750v-150h-750c-100 0 -150 -50 -150 -150s50 -150 150 -150h450c200 0 300 -100 300 -300s-100 -300 -300 -300h-750z" />
    <glyph glyph-name="t" unicode="t" horiz-adv-x="750" 
d="M350 350c0 -133.333 66.667 -200 200 -200h100v-150h-100c-233.333 0 -350 116.667 -350 350v550h-150v150h150v250h150v-250h250v-150h-250v-550z" />
    <glyph glyph-name="u" unicode="u" 
d="M50 1050h150v-700c0 -133.333 66.667 -200 200 -200h350c133.333 0 200 66.667 200 200v700h150v-700c0 -233.333 -116.667 -350 -350 -350h-350c-233.333 0 -350 116.667 -350 350v700z" />
    <glyph glyph-name="v" unicode="v" horiz-adv-x="1150" 
d="M551 185l361 865h163l-440 -1050h-169l-441 1050h164z" />
    <glyph glyph-name="w" unicode="w" horiz-adv-x="1800" 
d="M402 0l-377 1050h161l302 -842l301 842h172l302 -842l301 842h161l-378 -1050h-170l-302 841l-303 -841h-170z" />
    <glyph glyph-name="x" unicode="x" 
d="M575 643l330 407h193l-427 -525l427 -525h-193l-330 406l-330 -406h-193l427 525l-427 525h192z" />
    <glyph glyph-name="y" unicode="y" 
d="M50 1050h150.001v-700c0 -133.333 66.667 -200 200 -200h350c133.333 0 200 66.667 200 200v700h150v-1150c0 -233.333 -116.667 -350 -350 -350h-700v150h700c133.333 0 200 66.667 200 200v142c-52.667 -28 -119.334 -42 -200.001 -42h-350
c-233.333 0 -350 116.667 -350 350v700z" />
    <glyph glyph-name="z" unicode="z" 
d="M874 900h-824v150h1050v-150l-826 -750h826v-150h-1050v150z" />
    <glyph glyph-name="braceleft" unicode="{" horiz-adv-x="1014" 
d="M240 698c114.667 3.33301 188.999 26.999 222.999 70.999s51 88.333 51 133v468c0 49.333 25.667 96.5 77 141.5s113 67.5 185 67.5h108v-50h-90c-40.667 0 -76.334 -11.167 -107.001 -33.5s-46.334 -52.833 -47.001 -91.5v-500
c0 -55.333 -20.167 -108.166 -60.5 -158.499s-87.833 -75.833 -142.5 -76.5v-2c54.667 -0.666992 102.334 -26 143.001 -76s61 -102.667 61 -158l-1 -500c0.666992 -38.667 16.334 -69.167 47.001 -91.5s66.334 -33.5 107.001 -33.5h90v-50h-108
c-72 0 -133.5 22.5 -184.5 67.5s-76.833 92.167 -77.5 141.5v468c0 44 -17 88 -51 132s-108.333 67.667 -223 71v60z" />
    <glyph glyph-name="bar" unicode="|" horiz-adv-x="1014" 
d="M427 1577h160v-1995h-160v1995z" />
    <glyph glyph-name="braceright" unicode="}" horiz-adv-x="1014" 
d="M774 638c-114.667 -3.33301 -189.001 -26.999 -223.001 -70.999s-51 -88 -51 -132v-468c-0.666992 -49.333 -26.5 -96.5 -77.5 -141.5s-112.5 -67.5 -184.5 -67.5h-108v50h90c40.667 0 76.334 11.167 107.001 33.5s46.334 52.833 47.001 91.5l-1 500
c0 55.333 20.333 108 61 158s88.667 75.333 144 76v2c-55.333 0.666992 -103.166 26.167 -143.499 76.5s-60.5 103.166 -60.5 158.499v500c-0.666992 38.667 -16.334 69.167 -47.001 91.5s-66.334 33.5 -107.001 33.5h-90v50h108c72 0 133.667 -22.5 185 -67.5
s77 -92.167 77 -141.5v-468c0 -44.667 17 -89 51 -133s108.333 -67.667 223 -71v-60z" />
    <glyph glyph-name="asciitilde" unicode="~" horiz-adv-x="1014" 
d="M923 878l-0.00195312 -156c-42 -48 -82.667 -80.5 -122 -97.5s-78 -25.5 -116 -25.5c-40 0 -99.167 16.167 -177.5 48.5s-137.166 48.5 -176.499 48.5c-34 0 -69.833 -9.33301 -107.5 -28s-80.834 -56 -129.501 -112v156c42.667 48.667 83.667 81.667 123 99
s77.333 26 114 26c42.667 0 103.167 -16.5 181.5 -49.5s135.833 -49.5 172.5 -49.5c34.667 0 70.834 9.33301 108.501 28s80.834 56 129.501 112z" />
    <glyph glyph-name="exclamdown" unicode="&#xa1;" horiz-adv-x="300" 
d="M200 750v-1200h-150v1200h150zM225 975c0 -66.667 -33.333 -100 -100 -100s-100 33.333 -100 100s33.333 100 100 100s100 -33.333 100 -100z" />
    <glyph glyph-name="cent" unicode="&#xa2;" horiz-adv-x="1139" 
 />
    <glyph glyph-name="sterling" unicode="&#xa3;" horiz-adv-x="1014" 
d="M748 1347c-48 20.667 -101.333 30.999 -160 30.999h-2c-66.667 0 -130 -33.667 -190 -101c-56 -62 -84 -142.333 -84 -241c0 -10 0.333008 -20 1 -30c0 -90 17.667 -181 53 -273h360v-60h-334c9.33301 -20 19.666 -40 30.999 -60c23.333 -42 35 -88 35 -138
c0 -107.333 -54 -232.333 -162 -375h402c86.667 0 149.667 44 189 132l49 -1l-103 -231h-719l1 50c124.667 158.667 187 298 187 418c0 51.333 -11.333 99 -34 143c-11.333 21.333 -21.666 42 -30.999 62h-161v60h135c-38.667 95.333 -58 179.666 -58 252.999
c0 150.667 41.167 266.334 123.5 347.001s184.5 121 306.5 121h4c50 0 111.833 -4.66699 185.5 -14s110.5 -20.666 110.5 -33.999v-161h-58c-3.33301 40.667 -29 74.667 -77 102z" />
    <glyph glyph-name="currency" unicode="&#xa4;" horiz-adv-x="1014" 
d="M350 560c27.333 -26.667 60.333 -45.6641 99 -56.9971c19.333 -5.33301 38.666 -8 57.999 -8s38.666 2.66699 57.999 8c38.667 11.333 71.667 30.333 99 57c26.667 27.333 45.667 60.333 57 99c6 19.333 9 38.666 9 57.999s-3 38.666 -9 57.999
c-11.333 38.667 -30.333 71.667 -57 99c-27.333 26.667 -60.666 45.667 -99.999 57c-19.333 5.33301 -38.666 8 -57.999 8s-38.666 -3 -57.999 -9c-38.667 -11.333 -71.334 -30 -98.001 -56c-26 -26.667 -44.667 -59.334 -56 -98.001c-6.66699 -20 -10 -40 -10 -60
c0 -18.667 3 -37.334 9 -56.001c10.667 -39.333 29.667 -72.666 57 -99.999zM240 903.003l-118.001 118l80 81l118 -118c29.333 20 62.333 35.333 99 46c29.333 9.33301 59 14 89 14c27.333 0 55 -4 83 -12c38 -11.333 72 -27.333 102 -48l118 118l80 -81l-117 -117
c20.667 -30.667 36.667 -64.667 48 -102c8 -28 12 -56.333 12 -85c0 -28 -4 -56.333 -12 -85c-11.333 -37.333 -27.333 -71.333 -48 -102l117 -117l-80 -81l-118 118c-30 -21.333 -63.667 -37.333 -101 -48c-28 -8 -56.333 -12 -85 -12c-28 0 -56.333 4 -85 12
c-38 10.667 -72 26.667 -102 48l-118 -118l-80 81l118 117c-21.333 30.667 -37.333 65 -48 103c-8 28 -12 56 -12 84c0 29.333 4.33301 58.333 13 87c10.667 36.667 26.334 69.667 47.001 99z" />
    <glyph glyph-name="yen" unicode="&#xa5;" horiz-adv-x="1262" 
d="M547 225l-1.99707 241.993c0 12.667 -0.5 24.334 -1.5 35.001s-2.5 21.334 -4.5 32.001l-484 1c-9.33301 0 -16.333 2.16699 -21 6.5s-7 10.833 -7 19.5s2.16699 15 6.5 19s11.5 6 21.5 6h467l-121 172h-344c-11.333 0 -19.166 1.83301 -23.499 5.5
s-6.5 9.83398 -6.5 18.501c0 9.33301 2 15.833 6 19.5s11.333 5.5 22 5.5h307c-28.667 38 -64.667 89.667 -108 155c-87.333 131.333 -163 197 -227 197c-4.66699 0 -9 1.83301 -13 5.5s-6 7.5 -6 11.5c0 12.667 3.5 21.834 10.5 27.501s17.833 8.5 32.5 8.5
c18 0 59 -2.66699 123 -8s118.667 -8 164 -8h57h31c22 0 35.667 -2.16699 41 -6.5s8 -13.166 8 -26.499c0 -5.33301 -5 -10 -15 -14s-22.667 -6 -38 -6c-4 0 -10.167 0.666992 -18.5 2s-14.5 2 -18.5 2c-16 0 -28.5 -3.16699 -37.5 -9.5s-13.5 -14.833 -13.5 -25.5
c0 -12 5.5 -29.333 16.5 -52s26.5 -48.334 46.5 -77.001l158 -221c8.66699 -12.667 19.667 -30.334 33 -53.001c27.333 -46.667 51 -70 71 -70c6 0 11.5 1.66699 16.5 5s9.83301 8.33301 14.5 15l277 396c5.33301 8 9.66602 16.833 12.999 26.5s5 17.834 5 24.501
c0 12 -3.33301 21 -10 27s-19 10.667 -37 14c-10 1.33301 -23.667 2.66602 -41 3.99902c-31.333 2 -47 10.333 -47 25c0 10 2.66699 17.5 8 22.5s13.666 7.5 24.999 7.5c2 0 7 -0.333008 15 -1c37.333 -4.66699 73.333 -7 108 -7h139c20 0 41.667 0.333008 65 1
s35.666 1 36.999 1c7.33301 0 13.5 -1.5 18.5 -4.5s7.83301 -6.83301 8.5 -11.5c0 -18.667 -12.667 -30 -38 -34c-12 -2 -21 -3.66699 -27 -5c-42 -10 -91 -49 -147 -117l-12 -15l-169 -206h323c10 0 18 -2 24 -6s9 -9.66699 9 -17c0 -10 -2 -16.833 -6 -20.5
s-11.667 -5.5 -23 -5.5h-366c-30.667 -38 -62.834 -75.5 -96.501 -112.5s-51.167 -56.833 -52.5 -59.5h511c12 0 20.5 -1.83301 25.5 -5.5s7.5 -9.5 7.5 -17.5c0 -9.33301 -2.33301 -16.333 -7 -21s-12 -7 -22 -7h-530c0 -7.33301 -0.333008 -17.5 -1 -30.5
s-1 -22.833 -1 -29.5l2 -215c0 -76 1.83301 -126 5.5 -150s10.5 -38.667 20.5 -44c20 -11.333 55.833 -17.666 107.5 -18.999s77.5 -11.666 77.5 -30.999c0 -8 -3.33301 -14.667 -10 -20s-15 -8 -25 -8c-1.33301 0 -13.166 1.33301 -35.499 4s-43.833 4 -64.5 4
c-60.667 0 -130.167 -1.33301 -208.5 -4s-125.833 -4 -142.5 -4c-20.667 0 -34 1.33301 -40 4s-9 8 -9 16s2.66699 14.167 8 18.5s17.666 8.5 36.999 12.5c6 1.33301 14.333 3 25 5c49.333 10.667 80 21.334 92 32.001c11.333 8.66699 19.333 24.334 24 47.001
s7 56.667 7 102z" />
    <glyph glyph-name="brokenbar" unicode="&#xa6;" horiz-adv-x="1014" 
d="M427 371h160v-789h-160v789zM427 1578h160v-789h-160v789z" />
    <glyph glyph-name="section" unicode="&#xa7;" horiz-adv-x="1014" 
d="M545 321c37.333 10.667 69.668 28.3359 97.001 53.0029c48.667 43.333 73 98.666 73 165.999c0 3.33301 -0.333008 6.66602 -1 9.99902h-2c-0.666992 9.33301 -2 18.333 -4 27c-14.667 40.667 -52.334 83 -113.001 127c-39.333 19.333 -81.333 29 -126 29
c-52 0 -93.667 -14.833 -125 -44.5s-47 -68.834 -47 -117.501c0 -82 82.667 -165.333 248 -250zM466.002 -345.998c75.333 4 137.001 26.9971 185.001 68.9971c48 42.667 72 97.667 72 165c0 83.333 -105.333 175.333 -316 276c-82 42.667 -140.5 88.334 -175.5 137.001
s-52.5 107.667 -52.5 177c0 98.667 29.667 177.667 89 237c44.667 43.333 101.334 70.666 170.001 81.999l-40 19c-82 42.667 -140.5 88.334 -175.5 137.001s-52.5 107.667 -52.5 177c0 98.667 29.667 177.667 89 237c54.667 52.667 126.667 81.334 216 86.001
c5.33301 0.666992 11 1 17 1h3c44 0 98.333 -5.5 163 -16.5s97 -24.833 97 -41.5v-194h-51c-3.33301 54 -30 98 -80 132c-46.667 31.333 -96.334 48.333 -149.001 51h-15c-52 0 -93.667 -14.833 -125 -44.5s-47 -68.834 -47 -117.501c0 -88 95.667 -177.667 287 -269
c99.333 -44.667 167.5 -92.5 204.5 -143.5s55.5 -113.5 55.5 -187.5c0 -114 -33.667 -208 -101 -282c-31.333 -26 -64.333 -47.333 -99 -64c72 -37.333 123.333 -76.666 154 -117.999c36.667 -51.333 55 -113.666 55 -186.999c0 -114 -33.667 -208.333 -101 -283
c-82.667 -68 -175 -103 -277 -105v1c-4 -0.666992 -8.33301 -1 -13 -1h-3c-44 0 -98.333 5.5 -163 16.5s-97 24.833 -97 41.5v194h51c3.33301 -54 30 -98 80 -132c45.333 -30 93.666 -46.667 144.999 -50z" />
    <glyph glyph-name="dieresis" unicode="&#xa8;" horiz-adv-x="650" 
d="M150 1050c-66.667 0 -100 33.333 -100 100s33.333 100 100 100s100 -33.333 100 -100s-33.333 -100 -100 -100zM450 1050c-66.667 0 -100 33.333 -100 100s33.333 100 100 100s100 -33.333 100 -100s-33.333 -100 -100 -100z" />
    <glyph glyph-name="copyright" unicode="&#xa9;" horiz-adv-x="1674" 
d="M840 1456c96.667 0 190 -18.835 280 -56.502s169.667 -91.167 239 -160.5c68 -67.333 120.833 -146.666 158.5 -237.999s56.5 -185.666 56.5 -282.999c0 -98 -18.833 -192 -56.5 -282s-91.834 -170 -162.501 -240c-70 -70 -149.667 -123.167 -239 -159.5
s-183.666 -54.5 -282.999 -54.5c-97.333 0 -190 18.5 -278 55.5s-167.333 90.5 -238 160.5c-70.667 69.333 -124.5 148.5 -161.5 237.5s-55.5 183.167 -55.5 282.5c0 98.667 18.5 193 55.5 283s90.167 169.333 159.5 238c68 69.333 147.5 122.833 238.5 160.5
s186.5 56.5 286.5 56.5zM357 1197c-63.333 -64 -112.004 -137.168 -146.004 -219.501s-51 -168.833 -51 -259.5c0 -91.333 17 -177.666 51 -258.999s83.333 -154.333 148 -219c65.333 -64 138.333 -113 219 -147s166 -51 256 -51c91.333 0 177.833 16.833 259.5 50.5
s154.834 82.167 219.501 145.5c64.667 65.333 114.334 139.166 149.001 221.499s52 168.5 52 258.5c0 89.333 -17.333 175.833 -52 259.5s-83 156.834 -145 219.501c-64 64 -137.333 113.167 -220 147.5s-168.667 51.5 -258 51.5c-91.333 0 -178.666 -17.167 -261.999 -51.5
s-156.666 -83.5 -219.999 -147.5zM864.996 222.997c-94.667 0 -182.669 22.6689 -264.002 68.002s-143.333 107 -186 185s-64 159 -64 243s21.833 165.333 65.5 244s106.167 140.167 187.5 184.5s166 66.5 254 66.5c25.333 0 50.333 -2.16699 75 -6.5s50 -11.166 76 -20.499
c3.33301 -0.666992 6.33301 -1 9 -1c12.667 0 21.334 10 26.001 30h42l72 -198h-44c-34.667 62.667 -78.334 104 -131.001 124c-48 17.333 -97 26 -147 26h-15c-57.333 -5.33301 -112.833 -29 -166.5 -71s-94.167 -101 -121.5 -177c-22 -60 -33 -121.333 -33 -184
c0 -16.667 0.666992 -33.334 2 -50.001c7.33301 -80.667 30.5 -155.334 69.5 -224.001s88.833 -119.334 149.5 -152.001c48 -26.667 103.333 -40.667 166 -42c82.667 0 147.334 18.667 194.001 56s70 79.333 70 126h53v-100c0 -30.667 -32.167 -59.5 -96.5 -86.5
s-145.166 -40.5 -242.499 -40.5z" />
    <glyph glyph-name="ordfeminine" unicode="&#xaa;" horiz-adv-x="648" 
 />
    <glyph glyph-name="guillemotleft" unicode="&#xab;" horiz-adv-x="944" 
d="M174 479l342 303h14v-37l-205 -266l205 -266v-37h-14zM487 479l342 303h14v-37l-205 -266l205 -266v-37h-14z" />
    <glyph glyph-name="logicalnot" unicode="&#xac;" horiz-adv-x="1014" 
d="M87 767h840v-491l-1 -1h-98v392h-741v100z" />
    <glyph glyph-name="registered" unicode="&#xae;" horiz-adv-x="1674" 
d="M751 1099l0.000976562 -373.998l3 -8c15.333 -37.333 34 -64.333 56 -81c19.333 -14.667 38 -22 56 -22h6c20.667 2.66699 41.167 15.5 61.5 38.5s35.833 55.5 46.5 97.5c8.66699 33.333 13 67.666 13 102.999c0 8.66699 -0.333008 17.667 -1 27
c-2.66699 44.667 -12 86.167 -28 124.5s-34.833 63.666 -56.5 75.999s-42.834 18.5 -63.501 18.5h-93zM984.001 576.002l81.999 -116c66.667 -94 116.667 -141 150 -141h34v-50h-346v50h45c20 0 30 7.33301 30 22c0 19.333 -23 57.333 -69 114l-75 102c-28 0 -56 14 -84 42
v-159c0 -80.667 12 -121 36 -121h53v-50h-316v50h43c24.667 0 37 40.333 37 121v538c0 80.667 -12.333 121 -37 121h-43v70h356c42.667 -0.666992 84.334 -14.667 125.001 -42c40 -27.333 70.833 -65.333 92.5 -114s32.5 -99.334 32.5 -152.001
c0 -52 -10.667 -102.167 -32 -150.5s-59.333 -93.166 -114 -134.499zM840 1456c96.667 0 190 -18.835 280 -56.502s169.667 -91.167 239 -160.5c68 -67.333 120.833 -146.666 158.5 -237.999s56.5 -185.666 56.5 -282.999c0 -98 -18.833 -192 -56.5 -282
s-91.834 -170 -162.501 -240c-70 -70 -149.667 -123.167 -239 -159.5s-183.666 -54.5 -282.999 -54.5c-97.333 0 -190 18.5 -278 55.5s-167.333 90.5 -238 160.5c-70.667 69.333 -124.5 148.5 -161.5 237.5s-55.5 183.167 -55.5 282.5c0 98.667 18.5 193 55.5 283
s90.167 169.333 159.5 238c68 69.333 147.5 122.833 238.5 160.5s186.5 56.5 286.5 56.5zM357 1197c-63.333 -64 -112.004 -137.168 -146.004 -219.501s-51 -168.833 -51 -259.5c0 -91.333 17 -177.666 51 -258.999s83.333 -154.333 148 -219
c65.333 -64 138.333 -113 219 -147s166 -51 256 -51c91.333 0 177.833 16.833 259.5 50.5s154.834 82.167 219.501 145.5c64.667 65.333 114.334 139.166 149.001 221.499s52 168.5 52 258.5c0 89.333 -17.333 175.833 -52 259.5s-83 156.834 -145 219.501
c-64 64 -137.333 113.167 -220 147.5s-168.667 51.5 -258 51.5c-91.333 0 -178.666 -17.167 -261.999 -51.5s-156.666 -83.5 -219.999 -147.5z" />
    <glyph glyph-name="macron" unicode="&#xaf;" horiz-adv-x="670" 
 />
    <glyph glyph-name="degree" unicode="&#xb0;" horiz-adv-x="674" 
d="M339 1372c-57.333 0 -106.501 -20.333 -147.501 -61s-61.5 -90 -61.5 -148s20.333 -107 61 -147s90 -60 148 -60s107 20 147 60s60 89 60 147s-20.167 107.333 -60.5 148s-89.166 61 -146.499 61zM338.999 1442c76.667 0 142.002 -27.167 196.002 -81.5
s81 -119.833 81 -196.5c0 -76 -27.333 -141.333 -82 -196s-120.334 -82 -197.001 -82c-78 0 -143.667 27 -197 81s-80 119.667 -80 197s27.167 143 81.5 197s120.166 81 197.499 81z" />
    <glyph glyph-name="plusminus" unicode="&#xb1;" horiz-adv-x="1014" 
 />
    <glyph glyph-name="uni00B2" unicode="&#xb2;" horiz-adv-x="1014" 
 />
    <glyph glyph-name="uni00B3" unicode="&#xb3;" horiz-adv-x="1014" 
 />
    <glyph glyph-name="acute" unicode="&#xb4;" horiz-adv-x="650" 
d="M563 1351l-343 -251h-170l343 251h170z" />
    <glyph glyph-name="paragraph" unicode="&#xb6;" horiz-adv-x="1024" 
d="M929 1435l-0.000976562 -70h-127v-1365h-82v1365h-166v-1365h-84v738c-116 5.33301 -207.833 39.5 -275.5 102.5s-101.5 144.833 -101.5 245.5c0 104.667 35.833 189 107.5 253s166.834 96 285.501 96h443z" />
    <glyph glyph-name="periodcentered" unicode="&#xb7;" horiz-adv-x="350" 
d="M150 500c-66.667 0 -100 33.333 -100 100s33.333 100 100 100s100 -33.333 100 -100s-33.333 -100 -100 -100z" />
    <glyph glyph-name="periodcentered" unicode="&#x2219;" horiz-adv-x="350" 
d="M150 500c-66.667 0 -100 33.333 -100 100s33.333 100 100 100s100 -33.333 100 -100s-33.333 -100 -100 -100z" />
    <glyph glyph-name="cedilla" unicode="&#xb8;" horiz-adv-x="1024" 
d="M360 -290c56.667 -34.667 107.333 -52 152 -52c44 0 75.5 7.16699 94.5 21.5s28.5 36.5 28.5 66.5s-16.333 51.333 -49 64c-26.667 10.667 -60.667 16 -102 16c-10.667 0 -22 -0.666992 -34 -2l48 176h63l-37 -104c21.333 2.66699 42 4.33398 62 5.00098
c57.333 0 102 -13.5 134 -40.5s48 -64.833 48 -113.5c0 -50.667 -19.5 -90.834 -58.5 -120.501s-92.5 -44.5 -160.5 -44.5c-72.667 0 -135.667 10.667 -189 32v96z" />
    <glyph glyph-name="uni00B9" unicode="&#xb9;" horiz-adv-x="1014" 
 />
    <glyph glyph-name="ordmasculine" unicode="&#xba;" horiz-adv-x="718" 
 />
    <glyph glyph-name="guillemotright" unicode="&#xbb;" horiz-adv-x="944" 
d="M115 176h-14v37l205 266l-205 266v37h14l342 -303zM428 176h-14v37l205 266l-205 266v37h14l342 -303z" />
    <glyph glyph-name="onequarter" unicode="&#xbc;" horiz-adv-x="1708" 
 />
    <glyph glyph-name="onehalf" unicode="&#xbd;" horiz-adv-x="1964" 
 />
    <glyph glyph-name="threequarters" unicode="&#xbe;" horiz-adv-x="1708" 
 />
    <glyph glyph-name="questiondown" unicode="&#xbf;" horiz-adv-x="748" 
 />
    <glyph glyph-name="Agrave" unicode="&#xc0;" horiz-adv-x="1150" 
d="M551 1292l-198 -692h396zM310 450l-129 -450h-156l430 1500h192l430 -1500h-156l-129 450h-482zM282 1850l343 -251h-170l-343 251h170z" />
    <glyph glyph-name="Aacute" unicode="&#xc1;" horiz-adv-x="1150" 
d="M551 1292l-198 -692h396zM310 450l-129 -450h-156l430 1500h192l430 -1500h-156l-129 450h-482zM976 1851l-343 -251h-170l343 251h170z" />
    <glyph glyph-name="Acircumflex" unicode="&#xc2;" horiz-adv-x="1150" 
d="M551 1292l-198 -692h396zM310 450l-129 -450h-156l430 1500h192l430 -1500h-156l-129 450h-482zM614 1851l202 -251h-129l-202 251h129zM616 1851l-202 -251h-129l203 251h128z" />
    <glyph glyph-name="Atilde" unicode="&#xc3;" horiz-adv-x="1540" 
 />
    <glyph glyph-name="Adieresis" unicode="&#xc4;" horiz-adv-x="1150" 
d="M551 1292l-198 -692h396zM310 450l-129 -450h-156l430 1500h192l430 -1500h-156l-129 450h-482zM400 1600c-66.667 0 -100 33.333 -100 100s33.333 100 100 100s100 -33.333 100 -100s-33.333 -100 -100 -100zM700 1600c-66.667 0 -100 33.333 -100 100
s33.333 100 100 100s100 -33.333 100 -100s-33.333 -100 -100 -100z" />
    <glyph glyph-name="Aring" unicode="&#xc5;" horiz-adv-x="1540" 
 />
    <glyph glyph-name="AE" unicode="&#xc6;" horiz-adv-x="2118" 
 />
    <glyph glyph-name="Ccedilla" unicode="&#xc7;" horiz-adv-x="1399" 
 />
    <glyph glyph-name="Egrave" unicode="&#xc8;" 
d="M1100 1500v-150h-900v-500h750v-150h-750v-550h900v-150h-1050v1500h1050zM370 1851l343 -251h-170l-343 251h170z" />
    <glyph glyph-name="Eacute" unicode="&#xc9;" 
d="M1100 1500v-150h-900v-500h750v-150h-750v-550h900v-150h-1050v1500h1050zM1000 1850l-343 -251h-170l343 251h170z" />
    <glyph glyph-name="Ecircumflex" unicode="&#xca;" 
d="M1100 1500v-150h-900v-500h750v-150h-750v-550h900v-150h-1050v1500h1050zM629 1851l202 -251h-129l-202 251h129zM631 1851l-202 -251h-129l203 251h128z" />
    <glyph glyph-name="Edieresis" unicode="&#xcb;" 
d="M1100 1500v-150h-900v-500h750v-150h-750v-550h900v-150h-1050v1500h1050zM425 1600c-66.667 0 -100 33.333 -100 100s33.333 100 100 100s100 -33.333 100 -100s-33.333 -100 -100 -100zM725 1600c-66.667 0 -100 33.333 -100 100s33.333 100 100 100
s100 -33.333 100 -100s-33.333 -100 -100 -100z" />
    <glyph glyph-name="Igrave" unicode="&#xcc;" horiz-adv-x="300" 
d="M50 0v1500h150v-1500h-150zM-130 1851l343 -251h-170l-343 251h170z" />
    <glyph glyph-name="Iacute" unicode="&#xcd;" horiz-adv-x="300" 
d="M50 0v1500h150v-1500h-150zM550 1851l-343 -251h-170l343 251h170z" />
    <glyph glyph-name="Icircumflex" unicode="&#xce;" horiz-adv-x="300" 
d="M50 0v1500h150v-1500h-150zM179 1850l202 -251h-129l-202 251h129zM181 1850l-202 -251h-129l203 251h128z" />
    <glyph glyph-name="Idieresis" unicode="&#xcf;" horiz-adv-x="300" 
d="M209 0v1500h150v-1500h-150zM134 1600c-66.667 0 -100 33.333 -100 100s33.333 100 100 100s100 -33.333 100 -100s-33.333 -100 -100 -100zM434 1600c-66.667 0 -100 33.333 -100 100s33.333 100 100 100s100 -33.333 100 -100s-33.333 -100 -100 -100z" />
    <glyph glyph-name="Eth" unicode="&#xd0;" horiz-adv-x="1400" 
d="M790 1350h-400v-1200h400c233.333 0 350 116.667 350 350v500c0 233.333 -116.667 350 -350 350zM790 0h-550v1500h550c333.333 0 500 -166.667 500 -500v-500c0 -333.333 -166.667 -500 -500 -500zM50 650v150h959.985v-150h-959.985z" />
    <glyph glyph-name="Ntilde" unicode="&#xd1;" horiz-adv-x="1554" 
 />
    <glyph glyph-name="Ograve" unicode="&#xd2;" 
d="M50 1150c0 233.333 116.667 350 350 350h350c233.333 0 350 -116.667 350 -350v-800c0 -233.333 -116.667 -350 -350 -350h-350c-233.333 0 -350 116.667 -350 350v800zM400 1350c-133.333 0 -200 -66.667 -200 -200v-800c0 -133.333 66.667 -200 200 -200h350
c133.333 0 200 66.667 200 200v800c0 133.333 -66.667 200 -200 200h-350zM320 1850l343 -251h-170l-343 251h170z" />
    <glyph glyph-name="Oacute" unicode="&#xd3;" 
d="M50 1150c0 233.333 116.667 350 350 350h350c233.333 0 350 -116.667 350 -350v-800c0 -233.333 -116.667 -350 -350 -350h-350c-233.333 0 -350 116.667 -350 350v800zM400 1350c-133.333 0 -200 -66.667 -200 -200v-800c0 -133.333 66.667 -200 200 -200h350
c133.333 0 200 66.667 200 200v800c0 133.333 -66.667 200 -200 200h-350zM1000 1851l-343 -251h-170l343 251h170z" />
    <glyph glyph-name="Ocircumflex" unicode="&#xd4;" 
d="M50 1150c0 233.333 116.667 350 350 350h350c233.333 0 350 -116.667 350 -350v-800c0 -233.333 -116.667 -350 -350 -350h-350c-233.333 0 -350 116.667 -350 350v800zM400 1350c-133.333 0 -200 -66.667 -200 -200v-800c0 -133.333 66.667 -200 200 -200h350
c133.333 0 200 66.667 200 200v800c0 133.333 -66.667 200 -200 200h-350zM629 1851l202 -251h-129l-202 251h129zM631 1851l-202 -251h-129l203 251h128z" />
    <glyph glyph-name="Otilde" unicode="&#xd5;" horiz-adv-x="1614" 
 />
    <glyph glyph-name="Odieresis" unicode="&#xd6;" 
d="M50 1150c0 233.333 116.667 350 350 350h350c233.333 0 350 -116.667 350 -350v-800c0 -233.333 -116.667 -350 -350 -350h-350c-233.333 0 -350 116.667 -350 350v800zM400 1350c-133.333 0 -200 -66.667 -200 -200v-800c0 -133.333 66.667 -200 200 -200h350
c133.333 0 200 66.667 200 200v800c0 133.333 -66.667 200 -200 200h-350zM425 1600c-66.667 0 -100 33.333 -100 100s33.333 100 100 100s100 -33.333 100 -100s-33.333 -100 -100 -100zM725 1600c-66.667 0 -100 33.333 -100 100s33.333 100 100 100s100 -33.333 100 -100
s-33.333 -100 -100 -100z" />
    <glyph glyph-name="multiply" unicode="&#xd7;" horiz-adv-x="1014" 
d="M507 618l-247 -247l-99 99l247 247l-247 248l99 98l247 -247l248 247l98 -99l-247 -247l247 -247l-99 -99z" />
    <glyph glyph-name="Oslash" unicode="&#xd8;" horiz-adv-x="1614" 
 />
    <glyph glyph-name="Ugrave" unicode="&#xd9;" 
d="M750 150c133.333 0 200 66.667 200 200v1150h150v-1150c0 -233.333 -116.667 -350 -350 -350h-350c-233.333 0 -350 116.667 -350 350v1150h150v-1150c0 -133.333 66.667 -200 200 -200h350zM357 1851l343 -251h-170l-343 251h170z" />
    <glyph glyph-name="Uacute" unicode="&#xda;" 
d="M750 150c133.333 0 200 66.667 200 200v1150h150v-1150c0 -233.333 -116.667 -350 -350 -350h-350c-233.333 0 -350 116.667 -350 350v1150h150v-1150c0 -133.333 66.667 -200 200 -200h350zM963 1851l-343 -251h-170l343 251h170z" />
    <glyph glyph-name="Ucircumflex" unicode="&#xdb;" 
d="M750 150c133.333 0 200 66.667 200 200v1150h150v-1150c0 -233.333 -116.667 -350 -350 -350h-350c-233.333 0 -350 116.667 -350 350v1150h150v-1150c0 -133.333 66.667 -200 200 -200h350zM629 1851l202 -251h-129l-202 251h129zM631 1851l-202 -251h-129l203 251h128z
" />
    <glyph glyph-name="Udieresis" unicode="&#xdc;" 
d="M750 150c133.333 0 200 66.667 200 200v1150h150v-1150c0 -233.333 -116.667 -350 -350 -350h-350c-233.333 0 -350 116.667 -350 350v1150h150v-1150c0 -133.333 66.667 -200 200 -200h350zM425 1600c-66.667 0 -100 33.333 -100 100s33.333 100 100 100
s100 -33.333 100 -100s-33.333 -100 -100 -100zM725 1600c-66.667 0 -100 33.333 -100 100s33.333 100 100 100s100 -33.333 100 -100s-33.333 -100 -100 -100z" />
    <glyph glyph-name="Yacute" unicode="&#xdd;" 
d="M675 750v-750h-175v750l-452 750h175l365 -605l364 605h175zM1013 1851l-343 -251h-170l343 251h170z" />
    <glyph glyph-name="Thorn" unicode="&#xde;" 
d="M50 0v1500h150v-1500h-150zM1100 750v-150c0 -233.333 -116.667 -350 -350 -350h-550v150h550c133.333 0 200 66.667 200 200v150h150zM200 1300h550c233.333 0 350 -116.667 350 -350v-200h-150v200c0 133.333 -66.667 200 -200 200h-550v150z" />
    <glyph glyph-name="germandbls" unicode="&#xdf;" horiz-adv-x="1251" 
 />
    <glyph glyph-name="agrave" unicode="&#xe0;" 
d="M750 150c133.333 0 200 66.666 200 199.999v215l-709 -163c-27.333 -9.33301 -41 -26.666 -41 -51.999c0 -133.333 66.667 -200 200 -200h350zM400 899.999c-133.333 0 -200 -66.666 -200 -199.999h-150c0 233.333 116.667 350 350 350h350
c233.333 0 350 -116.667 350 -350v-350c0 -233.333 -116.667 -350 -350 -350h-350c-233.333 0 -350 100 -350 300c0 145.333 50.667 228.666 152 249.999l747 170c-6 120 -72.333 180 -199 180h-350zM320 1401l343 -251h-170l-343 251h170z" />
    <glyph glyph-name="aacute" unicode="&#xe1;" 
d="M750 150c133.333 0 200 66.666 200 199.999v215l-709 -163c-27.333 -9.33301 -41 -26.666 -41 -51.999c0 -133.333 66.667 -200 200 -200h350zM400 899.999c-133.333 0 -200 -66.666 -200 -199.999h-150c0 233.333 116.667 350 350 350h350
c233.333 0 350 -116.667 350 -350v-350c0 -233.333 -116.667 -350 -350 -350h-350c-233.333 0 -350 100 -350 300c0 145.333 50.667 228.666 152 249.999l747 170c-6 120 -72.333 180 -199 180h-350zM1013 1400l-343 -251h-170l343 251h170z" />
    <glyph glyph-name="acircumflex" unicode="&#xe2;" 
d="M750 150c133.333 0 200 66.666 200 199.999v215l-709 -163c-27.333 -9.33301 -41 -26.666 -41 -51.999c0 -133.333 66.667 -200 200 -200h350zM400 899.999c-133.333 0 -200 -66.666 -200 -199.999h-150c0 233.333 116.667 350 350 350h350
c233.333 0 350 -116.667 350 -350v-350c0 -233.333 -116.667 -350 -350 -350h-350c-233.333 0 -350 100 -350 300c0 145.333 50.667 228.666 152 249.999l747 170c-6 120 -72.333 180 -199 180h-350zM648 1400l202 -251h-129l-202 251h129zM650 1400l-202 -251h-129l203 251
h128z" />
    <glyph glyph-name="atilde" unicode="&#xe3;" horiz-adv-x="922" 
 />
    <glyph glyph-name="adieresis" unicode="&#xe4;" 
d="M750 150c133.333 0 200 66.666 200 199.999v215l-709 -163c-27.333 -9.33301 -41 -26.666 -41 -51.999c0 -133.333 66.667 -200 200 -200h350zM400 899.999c-133.333 0 -200 -66.666 -200 -199.999h-150c0 233.333 116.667 350 350 350h350
c233.333 0 350 -116.667 350 -350v-350c0 -233.333 -116.667 -350 -350 -350h-350c-233.333 0 -350 100 -350 300c0 145.333 50.667 228.666 152 249.999l747 170c-6 120 -72.333 180 -199 180h-350zM425 1100c-66.667 0 -100 33.333 -100 100s33.333 100 100 100
s100 -33.333 100 -100s-33.333 -100 -100 -100zM725 1100c-66.667 0 -100 33.333 -100 100s33.333 100 100 100s100 -33.333 100 -100s-33.333 -100 -100 -100z" />
    <glyph glyph-name="aring" unicode="&#xe5;" horiz-adv-x="922" 
 />
    <glyph glyph-name="ae" unicode="&#xe6;" horiz-adv-x="1454" 
 />
    <glyph glyph-name="ccedilla" unicode="&#xe7;" horiz-adv-x="905" 
 />
    <glyph glyph-name="egrave" unicode="&#xe8;" horiz-adv-x="1125" 
d="M375 900c-133.333 0 -200 -66.666 -200 -199.999v-215l709 163c27.333 9.33301 41 26.666 41 51.999c0 133.333 -66.667 200 -200 200h-350zM725 150.001c133.333 0 200 66.666 200 199.999h150c0 -233.333 -116.667 -350 -350 -350h-350
c-233.333 0 -350 116.667 -350 350v350c0 233.333 116.667 350 350 350h350c233.333 0 350 -100 350 -300c0 -145.333 -50.667 -228.666 -152 -249.999l-747 -170c6 -120 72.333 -180 199 -180h350zM320 1401l343 -251h-170l-343 251h170z" />
    <glyph glyph-name="eacute" unicode="&#xe9;" horiz-adv-x="1125" 
d="M375 900c-133.333 0 -200 -66.666 -200 -199.999v-215l709 163c27.333 9.33301 41 26.666 41 51.999c0 133.333 -66.667 200 -200 200h-350zM725 150.001c133.333 0 200 66.666 200 199.999h150c0 -233.333 -116.667 -350 -350 -350h-350
c-233.333 0 -350 116.667 -350 350v350c0 233.333 116.667 350 350 350h350c233.333 0 350 -100 350 -300c0 -145.333 -50.667 -228.666 -152 -249.999l-747 -170c6 -120 72.333 -180 199 -180h350zM963 1401l-343 -251h-170l343 251h170z" />
    <glyph glyph-name="ecircumflex" unicode="&#xea;" horiz-adv-x="1125" 
d="M375 900c-133.333 0 -200 -66.666 -200 -199.999v-215l709 163c27.333 9.33301 41 26.666 41 51.999c0 133.333 -66.667 200 -200 200h-350zM725 150.001c133.333 0 200 66.666 200 199.999h150c0 -233.333 -116.667 -350 -350 -350h-350
c-233.333 0 -350 116.667 -350 350v350c0 233.333 116.667 350 350 350h350c233.333 0 350 -100 350 -300c0 -145.333 -50.667 -228.666 -152 -249.999l-747 -170c6 -120 72.333 -180 199 -180h350zM629 1400l202 -251h-129l-202 251h129zM631 1400l-202 -251h-129l203 251
h128z" />
    <glyph glyph-name="edieresis" unicode="&#xeb;" horiz-adv-x="1125" 
d="M375 900c-133.333 0 -200 -66.666 -200 -199.999v-215l709 163c27.333 9.33301 41 26.666 41 51.999c0 133.333 -66.667 200 -200 200h-350zM725 150.001c133.333 0 200 66.666 200 199.999h150c0 -233.333 -116.667 -350 -350 -350h-350
c-233.333 0 -350 116.667 -350 350v350c0 233.333 116.667 350 350 350h350c233.333 0 350 -100 350 -300c0 -145.333 -50.667 -228.666 -152 -249.999l-747 -170c6 -120 72.333 -180 199 -180h350zM400 1150c-66.667 0 -100 33.333 -100 100s33.333 100 100 100
s100 -33.333 100 -100s-33.333 -100 -100 -100zM700 1150c-66.667 0 -100 33.333 -100 100s33.333 100 100 100s100 -33.333 100 -100s-33.333 -100 -100 -100z" />
    <glyph glyph-name="igrave" unicode="&#xec;" horiz-adv-x="300" 
d="M50 0v1050h150v-1050h-150zM-130 1401l343 -251h-170l-343 251h170z" />
    <glyph glyph-name="iacute" unicode="&#xed;" horiz-adv-x="300" 
d="M50 0v1050h150v-1050h-150zM550 1351l-343 -251h-170l343 251h170z" />
    <glyph glyph-name="icircumflex" unicode="&#xee;" horiz-adv-x="300" 
d="M50 0v1050h150v-1050h-150zM179 1401l202 -251h-129l-202 251h129zM181 1401l-202 -251h-129l203 251h128z" />
    <glyph glyph-name="idieresis" unicode="&#xef;" horiz-adv-x="300" 
d="M50 0v1050h150v-1050h-150zM-25 1150c-66.667 0 -100 33.333 -100 100s33.333 100 100 100s100 -33.333 100 -100s-33.333 -100 -100 -100zM275 1150c-66.667 0 -100 33.333 -100 100s33.333 100 100 100s100 -33.333 100 -100s-33.333 -100 -100 -100z" />
    <glyph glyph-name="eth" unicode="&#xf0;" horiz-adv-x="1139" 
 />
    <glyph glyph-name="ntilde" unicode="&#xf1;" horiz-adv-x="1108" 
 />
    <glyph glyph-name="ograve" unicode="&#xf2;" 
d="M50 700c0 233.333 116.667 350 350 350h350c233.333 0 350 -116.667 350 -350v-350c0 -233.333 -116.667 -350 -350 -350h-350c-233.333 0 -350 116.667 -350 350v350zM400 900c-133.333 0 -200 -66.667 -200 -200v-350c0 -133.333 66.667 -200 200 -200h350
c133.333 0 200 66.667 200 200v350c0 133.333 -66.667 200 -200 200h-350zM320 1401l343 -251h-170l-343 251h170z" />
    <glyph glyph-name="oacute" unicode="&#xf3;" 
d="M50 700c0 233.333 116.667 350 350 350h350c233.333 0 350 -116.667 350 -350v-350c0 -233.333 -116.667 -350 -350 -350h-350c-233.333 0 -350 116.667 -350 350v350zM400 900c-133.333 0 -200 -66.667 -200 -200v-350c0 -133.333 66.667 -200 200 -200h350
c133.333 0 200 66.667 200 200v350c0 133.333 -66.667 200 -200 200h-350zM1000 1401l-343 -251h-170l343 251h170z" />
    <glyph glyph-name="ocircumflex" unicode="&#xf4;" 
d="M50 700c0 233.333 116.667 350 350 350h350c233.333 0 350 -116.667 350 -350v-350c0 -233.333 -116.667 -350 -350 -350h-350c-233.333 0 -350 116.667 -350 350v350zM400 900c-133.333 0 -200 -66.667 -200 -200v-350c0 -133.333 66.667 -200 200 -200h350
c133.333 0 200 66.667 200 200v350c0 133.333 -66.667 200 -200 200h-350zM629 1401l202 -251h-129l-202 251h129zM631 1401l-202 -251h-129l203 251h128z" />
    <glyph glyph-name="otilde" unicode="&#xf5;" horiz-adv-x="1010" 
 />
    <glyph glyph-name="odieresis" unicode="&#xf6;" 
d="M50 700c0 233.333 116.667 350 350 350h350c233.333 0 350 -116.667 350 -350v-350c0 -233.333 -116.667 -350 -350 -350h-350c-233.333 0 -350 116.667 -350 350v350zM400 900c-133.333 0 -200 -66.667 -200 -200v-350c0 -133.333 66.667 -200 200 -200h350
c133.333 0 200 66.667 200 200v350c0 133.333 -66.667 200 -200 200h-350zM425 1150c-66.667 0 -100 33.333 -100 100s33.333 100 100 100s100 -33.333 100 -100s-33.333 -100 -100 -100zM725 1150c-66.667 0 -100 33.333 -100 100s33.333 100 100 100s100 -33.333 100 -100
s-33.333 -100 -100 -100z" />
    <glyph glyph-name="divide" unicode="&#xf7;" horiz-adv-x="1014" 
d="M87 647v140h839l1 -1v-139h-840zM398 408l82.001 84c10 9.33301 19.667 14 29 14c8.66699 0 19 -5.33301 31 -16l80 -86c8 -10.667 12 -20.334 12 -29.001c0 -10 -4.66699 -20.333 -14 -31l-80 -88c-13.333 -13.333 -23 -20 -29 -20
c-10.667 0 -20.334 4.66699 -29.001 14l-88 101c-6.66699 8.66699 -10 17.334 -10 26.001c0 10 5.33301 20.333 16 31zM398.001 1101l82.001 84c10 9.33301 19.667 14 29 14c8.66699 0 19 -5.33301 31 -16l80 -86c8 -10.667 12 -20.334 12 -29.001
c0 -10 -4.66699 -20.333 -14 -31l-80 -88c-13.333 -13.333 -23 -20 -29 -20c-10.667 0 -20.334 4.66699 -29.001 14l-88 101c-6.66699 8.66699 -10 17.334 -10 26.001c0 10 5.33301 20.333 16 31z" />
    <glyph glyph-name="oslash" unicode="&#xf8;" horiz-adv-x="1010" 
 />
    <glyph glyph-name="ugrave" unicode="&#xf9;" 
d="M50 1050h150v-700c0 -133.333 66.667 -200 200 -200h350c133.333 0 200 66.667 200 200v700h150v-700c0 -233.333 -116.667 -350 -350 -350h-350c-233.333 0 -350 116.667 -350 350v700zM320 1401l343 -251h-170l-343 251h170z" />
    <glyph glyph-name="uacute" unicode="&#xfa;" 
d="M50 1050h150v-700c0 -133.333 66.667 -200 200 -200h350c133.333 0 200 66.667 200 200v700h150v-700c0 -233.333 -116.667 -350 -350 -350h-350c-233.333 0 -350 116.667 -350 350v700zM1000 1401l-343 -251h-170l343 251h170z" />
    <glyph glyph-name="ucircumflex" unicode="&#xfb;" 
d="M50 1050h150v-700c0 -133.333 66.667 -200 200 -200h350c133.333 0 200 66.667 200 200v700h150v-700c0 -233.333 -116.667 -350 -350 -350h-350c-233.333 0 -350 116.667 -350 350v700zM629 1401l202 -251h-129l-202 251h129zM631 1401l-202 -251h-129l203 251h128z" />
    <glyph glyph-name="udieresis" unicode="&#xfc;" 
d="M50 1050h150v-700c0 -133.333 66.667 -200 200 -200h350c133.333 0 200 66.667 200 200v700h150v-700c0 -233.333 -116.667 -350 -350 -350h-350c-233.333 0 -350 116.667 -350 350v700zM425 1150c-66.667 0 -100 33.333 -100 100s33.333 100 100 100
s100 -33.333 100 -100s-33.333 -100 -100 -100zM725 1150c-66.667 0 -100 33.333 -100 100s33.333 100 100 100s100 -33.333 100 -100s-33.333 -100 -100 -100z" />
    <glyph glyph-name="yacute" unicode="&#xfd;" 
d="M50 1050h150.001v-700c0 -133.333 66.667 -200 200 -200h350c133.333 0 200 66.667 200 200v700h150v-1150c0 -233.333 -116.667 -350 -350 -350h-700v150h700c133.333 0 200 66.667 200 200v142c-52.667 -28 -119.334 -42 -200.001 -42h-350
c-233.333 0 -350 116.667 -350 350v700zM1000 1401l-343 -251h-170l343 251h170z" />
    <glyph glyph-name="thorn" unicode="&#xfe;" 
d="M950 500v200c0 133.333 -66.667 200 -200 200h-150v150h150c233.333 0 350 -116.667 350 -350v-200h-150zM600 150h150c133.333 0 200 66.667 200 200v150h150v-150c0 -233.333 -116.667 -350 -350 -350h-150v150zM600 900h-200c-133.333 0 -200 -66.667 -200 -200v-100
h-150v100c0 233.333 116.667 350 350 350h200v-150zM200 1500v-1950h-150v1950h150zM200 0v150h400v-150h-400z" />
    <glyph glyph-name="ydieresis" unicode="&#xff;" 
d="M50 1050h150.001v-700c0 -133.333 66.667 -200 200 -200h350c133.333 0 200 66.667 200 200v700h150v-1150c0 -233.333 -116.667 -350 -350 -350h-700v150h700c133.333 0 200 66.667 200 200v142c-52.667 -28 -119.334 -42 -200.001 -42h-350
c-233.333 0 -350 116.667 -350 350v700zM425.001 1150c-66.667 0 -100 33.333 -100 100s33.333 100 100 100s100 -33.333 100 -100s-33.333 -100 -100 -100zM725.001 1150c-66.667 0 -100 33.333 -100 100s33.333 100 100 100s100 -33.333 100 -100s-33.333 -100 -100 -100z
" />
    <glyph glyph-name="Amacron" unicode="&#x100;" horiz-adv-x="0" 
 />
    <glyph glyph-name="amacron" unicode="&#x101;" horiz-adv-x="0" 
 />
    <glyph glyph-name="Abreve" unicode="&#x102;" horiz-adv-x="0" 
 />
    <glyph glyph-name="abreve" unicode="&#x103;" horiz-adv-x="0" 
 />
    <glyph glyph-name="Aogonek" unicode="&#x104;" horiz-adv-x="0" 
 />
    <glyph glyph-name="aogonek" unicode="&#x105;" horiz-adv-x="0" 
 />
    <glyph glyph-name="Cacute" unicode="&#x106;" 
d="M750 150c133.333 0 200 66.667 200 200h150c0 -233.333 -116.667 -350 -350 -350h-350c-233.333 0 -350 116.667 -350 350v800c0 233.333 116.667 350 350 350h350c233.333 0 350 -116.667 350 -350h-150c0 133.333 -66.667 200 -200 200h-350
c-133.333 0 -200 -66.667 -200 -200v-800c0 -133.333 66.667 -200 200 -200h350zM1000 1851l-343 -251h-170l343 251h170z" />
    <glyph glyph-name="cacute" unicode="&#x107;" 
d="M750 150c133.333 0 200 66.667 200 200h150c0 -233.333 -116.667 -350 -350 -350h-350c-233.333 0 -350 116.667 -350 350v350c0 233.333 116.667 350 350 350h350c233.333 0 350 -116.667 350 -350h-150c0 133.333 -66.667 200 -200 200h-350
c-133.333 0 -200 -66.667 -200 -200v-350c0 -133.333 66.667 -200 200 -200h350zM1000 1400l-343 -251h-170l343 251h170z" />
    <glyph glyph-name="Ccircumflex" unicode="&#x108;" 
d="M750 150c133.333 0 200 66.667 200 200h150c0 -233.333 -116.667 -350 -350 -350h-350c-233.333 0 -350 116.667 -350 350v800c0 233.333 116.667 350 350 350h350c233.333 0 350 -116.667 350 -350h-150c0 133.333 -66.667 200 -200 200h-350
c-133.333 0 -200 -66.667 -200 -200v-800c0 -133.333 66.667 -200 200 -200h350zM629 1851l202 -251h-129l-202 251h129zM631 1851l-202 -251h-129l203 251h128z" />
    <glyph glyph-name="ccircumflex" unicode="&#x109;" 
d="M750 150c133.333 0 200 66.667 200 200h150c0 -233.333 -116.667 -350 -350 -350h-350c-233.333 0 -350 116.667 -350 350v350c0 233.333 116.667 350 350 350h350c233.333 0 350 -116.667 350 -350h-150c0 133.333 -66.667 200 -200 200h-350
c-133.333 0 -200 -66.667 -200 -200v-350c0 -133.333 66.667 -200 200 -200h350zM629 1401l202 -251h-129l-202 251h129zM631 1401l-202 -251h-129l203 251h128z" />
    <glyph glyph-name="Cdotaccent" unicode="&#x10a;" 
d="M750 150c133.333 0 200 66.667 200 200h150c0 -233.333 -116.667 -350 -350 -350h-350c-233.333 0 -350 116.667 -350 350v800c0 233.333 116.667 350 350 350h350c233.333 0 350 -116.667 350 -350h-150c0 133.333 -66.667 200 -200 200h-350
c-133.333 0 -200 -66.667 -200 -200v-800c0 -133.333 66.667 -200 200 -200h350zM575 1600c-66.667 0 -100 33.333 -100 100s33.333 100 100 100s100 -33.333 100 -100s-33.333 -100 -100 -100z" />
    <glyph glyph-name="cdotaccent" unicode="&#x10b;" 
d="M750 150c133.333 0 200 66.667 200 200h150c0 -233.333 -116.667 -350 -350 -350h-350c-233.333 0 -350 116.667 -350 350v350c0 233.333 116.667 350 350 350h350c233.333 0 350 -116.667 350 -350h-150c0 133.333 -66.667 200 -200 200h-350
c-133.333 0 -200 -66.667 -200 -200v-350c0 -133.333 66.667 -200 200 -200h350zM575 1150c-66.667 0 -100 33.333 -100 100s33.333 100 100 100s100 -33.333 100 -100s-33.333 -100 -100 -100z" />
    <glyph glyph-name="Ccaron" unicode="&#x10c;" 
d="M750 150c133.333 0 200 66.667 200 200h150c0 -233.333 -116.667 -350 -350 -350h-350c-233.333 0 -350 116.667 -350 350v800c0 233.333 116.667 350 350 350h350c233.333 0 350 -116.667 350 -350h-150c0 133.333 -66.667 200 -200 200h-350
c-133.333 0 -200 -66.667 -200 -200v-800c0 -133.333 66.667 -200 200 -200h350zM500 1599l202 251h129l-202 -251h-129zM503 1599l-203 251h129l202 -251h-128z" />
    <glyph glyph-name="ccaron" unicode="&#x10d;" 
d="M750 150c133.333 0 200 66.667 200 200h150c0 -233.333 -116.667 -350 -350 -350h-350c-233.333 0 -350 116.667 -350 350v350c0 233.333 116.667 350 350 350h350c233.333 0 350 -116.667 350 -350h-150c0 133.333 -66.667 200 -200 200h-350
c-133.333 0 -200 -66.667 -200 -200v-350c0 -133.333 66.667 -200 200 -200h350zM519 1150l202 251h129l-202 -251h-129zM522 1150l-203 251h129l202 -251h-128z" />
    <glyph glyph-name="Dcaron" unicode="&#x10e;" 
d="M600 1350h-400v-1200h400c233.333 0 350 116.667 350 350v500c0 233.333 -116.667 350 -350 350zM600 0h-550v1500h550c333.333 0 500 -166.667 500 -500v-500c0 -333.333 -166.667 -500 -500 -500zM500 1600l202 251h129l-202 -251h-129zM503 1600l-203 251h129
l202 -251h-128z" />
    <glyph glyph-name="dcaron" unicode="&#x10f;" horiz-adv-x="1450" 
d="M200 350c0 -133.333 66.667 -200 200 -200h350c133.333 0 200 66.667 200 200v550h-550c-133.333 0 -200 -66.667 -200 -200v-350zM400 0c-233.333 0 -350 116.667 -350 350v350c0 233.333 116.667 350 350 350h550v450h150v-1150c0 -233.333 -116.667 -350 -350 -350
h-350zM1267 1511c29.333 0 58.832 -21.833 88.499 -65.5s44.5 -94.167 44.5 -151.5c0 -72.667 -23.667 -148.167 -71 -226.5s-93.666 -117.5 -138.999 -117.5c48.667 57.333 77.667 135 87 233c0 79.333 -43 147 -129 203z" />
    <glyph glyph-name="Dcroat" unicode="&#x110;" horiz-adv-x="0" 
 />
    <glyph glyph-name="dcroat" unicode="&#x111;" horiz-adv-x="0" 
 />
    <glyph glyph-name="Emacron" unicode="&#x112;" horiz-adv-x="0" 
 />
    <glyph glyph-name="emacron" unicode="&#x113;" horiz-adv-x="0" 
 />
    <glyph glyph-name="Ebreve" unicode="&#x114;" horiz-adv-x="0" 
 />
    <glyph glyph-name="ebreve" unicode="&#x115;" horiz-adv-x="0" 
 />
    <glyph glyph-name="Edotaccent" unicode="&#x116;" 
d="M1100 1500v-150h-900v-500h750v-150h-750v-550h900v-150h-1050v1500h1050zM575 1600c-66.667 0 -100 33.333 -100 100s33.333 100 100 100s100 -33.333 100 -100s-33.333 -100 -100 -100z" />
    <glyph glyph-name="edotaccent" unicode="&#x117;" horiz-adv-x="1125" 
d="M375 900c-133.333 0 -200 -66.666 -200 -199.999v-215l709 163c27.333 9.33301 41 26.666 41 51.999c0 133.333 -66.667 200 -200 200h-350zM725 150.001c133.333 0 200 66.666 200 199.999h150c0 -233.333 -116.667 -350 -350 -350h-350
c-233.333 0 -350 116.667 -350 350v350c0 233.333 116.667 350 350 350h350c233.333 0 350 -100 350 -300c0 -145.333 -50.667 -228.666 -152 -249.999l-747 -170c6 -120 72.333 -180 199 -180h350zM550 1150c-66.667 0 -100 33.333 -100 100s33.333 100 100 100
s100 -33.333 100 -100s-33.333 -100 -100 -100z" />
    <glyph glyph-name="Eogonek" unicode="&#x118;" horiz-adv-x="0" 
 />
    <glyph glyph-name="eogonek" unicode="&#x119;" horiz-adv-x="0" 
 />
    <glyph glyph-name="Ecaron" unicode="&#x11a;" 
d="M1100 1500v-150h-900v-500h750v-150h-750v-550h900v-150h-1050v1500h1050zM519 1600l202 251h129l-202 -251h-129zM522 1600l-203 251h129l202 -251h-128z" />
    <glyph glyph-name="ecaron" unicode="&#x11b;" horiz-adv-x="1125" 
d="M375 900c-133.333 0 -200 -66.666 -200 -199.999v-215l709 163c27.333 9.33301 41 26.666 41 51.999c0 133.333 -66.667 200 -200 200h-350zM725 150.001c133.333 0 200 66.666 200 199.999h150c0 -233.333 -116.667 -350 -350 -350h-350
c-233.333 0 -350 116.667 -350 350v350c0 233.333 116.667 350 350 350h350c233.333 0 350 -100 350 -300c0 -145.333 -50.667 -228.666 -152 -249.999l-747 -170c6 -120 72.333 -180 199 -180h350zM500 1150l202 251h129l-202 -251h-129zM503 1150l-203 251h129l202 -251
h-128z" />
    <glyph glyph-name="Gcircumflex" unicode="&#x11c;" 
d="M900 673v-2l-500 -115v155l500 114c133.333 -4 200 -89.333 200 -256v-219c0 -233.333 -116.667 -350 -350 -350h-350c-233.333 0 -350 116.667 -350 350v800c0 233.333 116.667 350 350 350h350c233.333 0 350 -116.667 350 -350h-150c0 133.333 -66.667 200 -200 200
h-350c-133.333 0 -200 -66.667 -200 -200v-800c0 -133.333 66.667 -200 200 -200h350c133.333 0 200 66.667 200 200v269c0 28 -16.667 46 -50 54zM648 1851l202 -251h-129l-202 251h129zM650 1851l-202 -251h-129l203 251h128z" />
    <glyph glyph-name="gcircumflex" unicode="&#x11d;" 
d="M50 700c0 233.333 116.667 350 350 350h350c233.333 0 350 -116.667 350 -350v-800c0 -233.333 -116.667 -350 -350 -350h-700v150h700c133.333 0 200 66.667 200 200v100h-550c-233.333 0 -350 116.667 -350 350v350zM400 900c-133.333 0 -200 -66.667 -200 -200v-350
c0 -133.333 66.667 -200 200 -200h550v550c0 133.333 -66.667 200 -200 200h-350zM629 1401l202 -251h-129l-202 251h129zM631 1401l-202 -251h-129l203 251h128z" />
    <glyph glyph-name="Gbreve" unicode="&#x11e;" horiz-adv-x="0" 
 />
    <glyph glyph-name="gbreve" unicode="&#x11f;" horiz-adv-x="0" 
 />
    <glyph glyph-name="Gdotaccent" unicode="&#x120;" 
d="M900 673v-2l-500 -115v155l500 114c133.333 -4 200 -89.333 200 -256v-219c0 -233.333 -116.667 -350 -350 -350h-350c-233.333 0 -350 116.667 -350 350v800c0 233.333 116.667 350 350 350h350c233.333 0 350 -116.667 350 -350h-150c0 133.333 -66.667 200 -200 200
h-350c-133.333 0 -200 -66.667 -200 -200v-800c0 -133.333 66.667 -200 200 -200h350c133.333 0 200 66.667 200 200v269c0 28 -16.667 46 -50 54zM575 1600c-66.667 0 -100 33.333 -100 100s33.333 100 100 100s100 -33.333 100 -100s-33.333 -100 -100 -100z" />
    <glyph glyph-name="gdotaccent" unicode="&#x121;" 
d="M50 700c0 233.333 116.667 350 350 350h350c233.333 0 350 -116.667 350 -350v-800c0 -233.333 -116.667 -350 -350 -350h-700v150h700c133.333 0 200 66.667 200 200v100h-550c-233.333 0 -350 116.667 -350 350v350zM400 900c-133.333 0 -200 -66.667 -200 -200v-350
c0 -133.333 66.667 -200 200 -200h550v550c0 133.333 -66.667 200 -200 200h-350zM575 1150c-66.667 0 -100 33.333 -100 100s33.333 100 100 100s100 -33.333 100 -100s-33.333 -100 -100 -100z" />
    <glyph glyph-name="Gcommaaccent" unicode="&#x122;" horiz-adv-x="0" 
 />
    <glyph glyph-name="gcommaaccent" unicode="&#x123;" horiz-adv-x="0" 
 />
    <glyph glyph-name="Hcircumflex" unicode="&#x124;" 
d="M200 700v-700h-150v1500h150v-650h750v650h150v-1500h-150v700h-750zM629 1851l202 -251h-129l-202 251h129zM631 1851l-202 -251h-129l203 251h128z" />
    <glyph glyph-name="hcircumflex" unicode="&#x125;" 
d="M50 1500h150v-450h400c333.333 0 500 -166.667 500 -500v-550h-150v550c0 233.333 -116.667 350 -350 350h-400v-900h-150v1500zM638 1850l202 -251h-129l-202 251h129zM640 1850l-202 -251h-129l203 251h128z" />
    <glyph glyph-name="Hbar" unicode="&#x126;" horiz-adv-x="0" 
 />
    <glyph glyph-name="hbar" unicode="&#x127;" horiz-adv-x="0" 
 />
    <glyph glyph-name="Itilde" unicode="&#x128;" horiz-adv-x="0" 
 />
    <glyph glyph-name="itilde" unicode="&#x129;" horiz-adv-x="0" 
 />
    <glyph glyph-name="Imacron" unicode="&#x12a;" horiz-adv-x="0" 
 />
    <glyph glyph-name="imacron" unicode="&#x12b;" horiz-adv-x="0" 
 />
    <glyph glyph-name="Ibreve" unicode="&#x12c;" horiz-adv-x="0" 
 />
    <glyph glyph-name="ibreve" unicode="&#x12d;" horiz-adv-x="0" 
 />
    <glyph glyph-name="Iogonek" unicode="&#x12e;" horiz-adv-x="0" 
 />
    <glyph glyph-name="iogonek" unicode="&#x12f;" horiz-adv-x="0" 
 />
    <glyph glyph-name="Idotaccent" unicode="&#x130;" horiz-adv-x="300" 
d="M408 0v1500h150v-1500h-150zM483 1600c-66.667 0 -100 33.333 -100 100s33.333 100 100 100s100 -33.333 100 -100s-33.333 -100 -100 -100z" />
    <glyph glyph-name="dotlessi" unicode="&#x131;" horiz-adv-x="300" 
d="M50 0v1050h150v-1050h-150z" />
    <glyph glyph-name="IJ" unicode="&#x132;" horiz-adv-x="0" 
 />
    <glyph glyph-name="ij" unicode="&#x133;" horiz-adv-x="0" 
 />
    <glyph glyph-name="Jcircumflex" unicode="&#x134;" 
d="M750 150c133.333 0 200 66.667 200 200v1150h150v-1150c0 -233.333 -116.667 -350 -350 -350h-350c-233.333 0 -350 116.667 -350 350v150h150v-150c0 -133.333 66.667 -200 200 -200h350zM1079 1850l202 -251h-129l-202 251h129zM1081 1850l-202 -251h-129l203 251h128z
" />
    <glyph glyph-name="jcircumflex" unicode="&#x135;" horiz-adv-x="300" 
d="M200 50v-150c0 -233.333 -116.667 -350 -350 -350h-50v150h50c133.333 0 200 66.667 200 200v150h150zM50 50v1000h150v-1000h-150zM178 1400l203 -251h-129l-202 251h128zM181 1400l-202 -251h-129l202 251h129z" />
    <glyph glyph-name="Kcommaaccent" unicode="&#x136;" horiz-adv-x="0" 
 />
    <glyph glyph-name="kcommaaccent" unicode="&#x137;" horiz-adv-x="0" 
 />
    <glyph glyph-name="kgreenlandic" unicode="&#x138;" horiz-adv-x="0" 
 />
    <glyph glyph-name="Lacute" unicode="&#x139;" 
d="M50 1500h150v-1350h900v-150h-1050v1500zM550 1851l-343 -251h-170l343 251h170z" />
    <glyph glyph-name="lacute" unicode="&#x13a;" horiz-adv-x="300" 
d="M50 0v1500h150v-1500h-150zM550 1851l-343 -251h-170l343 251h170z" />
    <glyph glyph-name="Lcommaaccent" unicode="&#x13b;" horiz-adv-x="0" 
 />
    <glyph glyph-name="lcommaaccent" unicode="&#x13c;" horiz-adv-x="0" 
 />
    <glyph glyph-name="Lcaron" unicode="&#x13d;" 
d="M50 1500h150v-1350h900v-150h-1050v1500zM419 1561c29.333 0 58.832 -21.833 88.499 -65.5s44.5 -94.167 44.5 -151.5c0 -72.667 -23.667 -148.167 -71 -226.5s-93.666 -117.5 -138.999 -117.5c48.667 57.333 77.667 135 87 233c0 79.333 -43 147 -129 203z" />
    <glyph glyph-name="lcaron" unicode="&#x13e;" horiz-adv-x="550" 
d="M50 0v1500h150v-1500h-150zM369 1550c29.333 0 58.832 -21.833 88.499 -65.5s44.5 -94.167 44.5 -151.5c0 -72.667 -23.667 -148.167 -71 -226.5s-93.666 -117.5 -138.999 -117.5c48.667 57.333 77.667 135 87 233c0 79.333 -43 147 -129 203z" />
    <glyph glyph-name="Ldot" unicode="&#x13f;" 
d="M50 1500h150v-1350h900v-150h-1050v1500zM625 550c-66.667 0 -100 33.333 -100 100s33.333 100 100 100s100 -33.333 100 -100s-33.333 -100 -100 -100z" />
    <glyph glyph-name="ldot" unicode="&#x140;" horiz-adv-x="550" 
d="M50 0v1500h150v-1500h-150zM350 550c-66.667 0 -100 33.333 -100 100s33.333 100 100 100s100 -33.333 100 -100s-33.333 -100 -100 -100z" />
    <glyph glyph-name="Lslash" unicode="&#x141;" horiz-adv-x="0" 
 />
    <glyph glyph-name="lslash" unicode="&#x142;" horiz-adv-x="0" 
 />
    <glyph glyph-name="Nacute" unicode="&#x143;" 
d="M950 284v1216h150v-1500h-151l-749 1216v-1216h-150v1500h151zM1000 1850l-343 -251h-170l343 251h170z" />
    <glyph glyph-name="nacute" unicode="&#x144;" 
d="M600 900h-400v-900h-150v1050h550c333.333 0 500 -166.667 500 -500v-550h-150v550c0 233.333 -116.667 350 -350 350zM988 1401l-343 -251h-170l343 251h170z" />
    <glyph glyph-name="Ncommaaccent" unicode="&#x145;" horiz-adv-x="0" 
 />
    <glyph glyph-name="ncommaaccent" unicode="&#x146;" horiz-adv-x="0" 
 />
    <glyph glyph-name="Ncaron" unicode="&#x147;" 
d="M950 284v1216h150v-1500h-151l-749 1216v-1216h-150v1500h151zM525 1600l202 251h129l-202 -251h-129zM528 1600l-203 251h129l202 -251h-128z" />
    <glyph glyph-name="ncaron" unicode="&#x148;" 
d="M600 900h-400v-900h-150v1050h550c333.333 0 500 -166.667 500 -500v-550h-150v550c0 233.333 -116.667 350 -350 350zM519 1150l202 251h129l-202 -251h-129zM522 1150l-203 251h129l202 -251h-128z" />
    <glyph glyph-name="napostrophe" unicode="&#x149;" horiz-adv-x="0" 
 />
    <glyph glyph-name="Eng" unicode="&#x14a;" horiz-adv-x="0" 
 />
    <glyph glyph-name="eng" unicode="&#x14b;" horiz-adv-x="0" 
 />
    <glyph glyph-name="Omacron" unicode="&#x14c;" horiz-adv-x="0" 
 />
    <glyph glyph-name="omacron" unicode="&#x14d;" horiz-adv-x="0" 
 />
    <glyph glyph-name="Obreve" unicode="&#x14e;" horiz-adv-x="0" 
 />
    <glyph glyph-name="obreve" unicode="&#x14f;" horiz-adv-x="0" 
 />
    <glyph glyph-name="Ohungarumlaut" unicode="&#x150;" 
d="M50 1150c0 233.333 116.667 350 350 350h350c233.333 0 350 -116.667 350 -350v-800c0 -233.333 -116.667 -350 -350 -350h-350c-233.333 0 -350 116.667 -350 350v800zM400 1350c-133.333 0 -200 -66.667 -200 -200v-800c0 -133.333 66.667 -200 200 -200h350
c133.333 0 200 66.667 200 200v800c0 133.333 -66.667 200 -200 200h-350zM813 1851l-343 -251h-170l343 251h170zM1150 1851l-343 -251h-170l343 251h170z" />
    <glyph glyph-name="ohungarumlaut" unicode="&#x151;" 
d="M50 700c0 233.333 116.667 350 350 350h350c233.333 0 350 -116.667 350 -350v-350c0 -233.333 -116.667 -350 -350 -350h-350c-233.333 0 -350 116.667 -350 350v350zM400 900c-133.333 0 -200 -66.667 -200 -200v-350c0 -133.333 66.667 -200 200 -200h350
c133.333 0 200 66.667 200 200v350c0 133.333 -66.667 200 -200 200h-350zM813 1401l-343 -251h-170l343 251h170zM1150 1401l-343 -251h-170l343 251h170z" />
    <glyph glyph-name="OE" unicode="&#x152;" horiz-adv-x="0" 
 />
    <glyph glyph-name="oe" unicode="&#x153;" horiz-adv-x="0" 
 />
    <glyph glyph-name="Racute" unicode="&#x154;" 
d="M200 1350v-750h550c133.333 0 200 66.667 200 200v350c0 133.333 -66.667 200 -200 200h-550zM200 450v-450h-150v1500h700c233.333 0 350 -116.667 350 -350v-350c0 -231.333 -114.667 -348 -344 -350l394 -394v-56h-156l-450 450h-344zM1013 1851l-343 -251h-170
l343 251h170z" />
    <glyph glyph-name="racute" unicode="&#x155;" horiz-adv-x="1050" 
d="M550 1050h400v-150h-400c-233.333 0 -350 -116.667 -350 -350v-550h-150v550c0 333.333 166.667 500 500 500zM900 1400l-343 -251h-170l343 251h170z" />
    <glyph glyph-name="Rcommaaccent" unicode="&#x156;" horiz-adv-x="0" 
 />
    <glyph glyph-name="rcommaaccent" unicode="&#x157;" horiz-adv-x="0" 
 />
    <glyph glyph-name="Rcaron" unicode="&#x158;" 
d="M200 1350v-750h550c133.333 0 200 66.667 200 200v350c0 133.333 -66.667 200 -200 200h-550zM200 450v-450h-150v1500h700c233.333 0 350 -116.667 350 -350v-350c0 -231.333 -114.667 -348 -344 -350l394 -394v-56h-156l-450 450h-344zM519 1599l202 251h129l-202 -251
h-129zM522 1599l-203 251h129l202 -251h-128z" />
    <glyph glyph-name="rcaron" unicode="&#x159;" horiz-adv-x="1050" 
d="M550 1050h400v-150h-400c-233.333 0 -350 -116.667 -350 -350v-550h-150v550c0 333.333 166.667 500 500 500zM450 1150l202 251h129l-202 -251h-129zM453 1150l-203 251h129l202 -251h-128z" />
    <glyph glyph-name="Sacute" unicode="&#x15a;" 
d="M50 0v150h700c133.333 0 200 83.333 200 250s-66.667 250 -200 250h-300c-266.667 0 -400 133.333 -400 400c0 300 133.333 450 400 450h650v-150h-650c-166.667 0 -250 -100 -250 -300c0 -166.667 83.333 -250 250 -250h300c233.333 0 350 -133.333 350 -400
s-116.667 -400 -350 -400h-700zM1000 1850l-343 -251h-170l343 251h170z" />
    <glyph glyph-name="sacute" unicode="&#x15b;" 
d="M50 0v150h750c100 0 150 50 150 150s-50 150 -150 150h-450c-200 0 -300 100 -300 300s100 300 300 300h750v-150h-750c-100 0 -150 -50 -150 -150s50 -150 150 -150h450c200 0 300 -100 300 -300s-100 -300 -300 -300h-750zM1000 1400l-343 -251h-170l343 251h170z" />
    <glyph glyph-name="Scircumflex" unicode="&#x15c;" 
d="M50 0v150h700c133.333 0 200 83.333 200 250s-66.667 250 -200 250h-300c-266.667 0 -400 133.333 -400 400c0 300 133.333 450 400 450h650v-150h-650c-166.667 0 -250 -100 -250 -300c0 -166.667 83.333 -250 250 -250h300c233.333 0 350 -133.333 350 -400
s-116.667 -400 -350 -400h-700zM629 1850l202 -251h-129l-202 251h129zM631 1850l-202 -251h-129l203 251h128z" />
    <glyph glyph-name="scircumflex" unicode="&#x15d;" 
d="M50 0v150h750c100 0 150 50 150 150s-50 150 -150 150h-450c-200 0 -300 100 -300 300s100 300 300 300h750v-150h-750c-100 0 -150 -50 -150 -150s50 -150 150 -150h450c200 0 300 -100 300 -300s-100 -300 -300 -300h-750zM629 1401l202 -251h-129l-202 251h129z
M631 1401l-202 -251h-129l203 251h128z" />
    <glyph glyph-name="Scedilla" unicode="&#x15e;" horiz-adv-x="0" 
 />
    <glyph glyph-name="scedilla" unicode="&#x15f;" horiz-adv-x="0" 
 />
    <glyph glyph-name="Scaron" unicode="&#x160;" 
d="M50 0v150h700c133.333 0 200 83.333 200 250s-66.667 250 -200 250h-300c-266.667 0 -400 133.333 -400 400c0 300 133.333 450 400 450h650v-150h-650c-166.667 0 -250 -100 -250 -300c0 -166.667 83.333 -250 250 -250h300c233.333 0 350 -133.333 350 -400
s-116.667 -400 -350 -400h-700zM500 1600l202 251h129l-202 -251h-129zM503 1600l-203 251h129l202 -251h-128z" />
    <glyph glyph-name="scaron" unicode="&#x161;" 
d="M50 0v150h750c100 0 150 50 150 150s-50 150 -150 150h-450c-200 0 -300 100 -300 300s100 300 300 300h750v-150h-750c-100 0 -150 -50 -150 -150s50 -150 150 -150h450c200 0 300 -100 300 -300s-100 -300 -300 -300h-750zM500 1150l202 251h129l-202 -251h-129z
M503 1150l-203 251h129l202 -251h-128z" />
    <glyph glyph-name="Tcommaaccent" unicode="&#x162;" horiz-adv-x="0" 
 />
    <glyph glyph-name="tcommaaccent" unicode="&#x163;" horiz-adv-x="0" 
 />
    <glyph glyph-name="Tcaron" unicode="&#x164;" 
d="M650 1350v-1350h-150v1350h-450v150h1050v-150h-450zM500 1599l202 251h129l-202 -251h-129zM503 1599l-203 251h129l202 -251h-128z" />
    <glyph glyph-name="tcaron" unicode="&#x165;" horiz-adv-x="900" 
d="M350 350c0 -133.333 66.667 -200 200 -200h100v-150h-100c-233.333 0 -350 116.667 -350 350v550h-150v150h150v250h150v-250h250v-150h-250v-550zM717 1361c29.333 0 58.832 -21.833 88.499 -65.5s44.5 -94.167 44.5 -151.5c0 -72.667 -23.667 -148.167 -71 -226.5
s-93.666 -117.5 -138.999 -117.5c48.667 57.333 77.667 135 87 233c0 79.333 -43 147 -129 203z" />
    <glyph glyph-name="Tbar" unicode="&#x166;" horiz-adv-x="0" 
 />
    <glyph glyph-name="tbar" unicode="&#x167;" horiz-adv-x="0" 
 />
    <glyph glyph-name="Utilde" unicode="&#x168;" horiz-adv-x="0" 
 />
    <glyph glyph-name="utilde" unicode="&#x169;" horiz-adv-x="0" 
 />
    <glyph glyph-name="Umacron" unicode="&#x16a;" horiz-adv-x="0" 
 />
    <glyph glyph-name="umacron" unicode="&#x16b;" horiz-adv-x="0" 
 />
    <glyph glyph-name="Ubreve" unicode="&#x16c;" horiz-adv-x="0" 
 />
    <glyph glyph-name="ubreve" unicode="&#x16d;" horiz-adv-x="0" 
 />
    <glyph glyph-name="Uring" unicode="&#x16e;" 
d="M750 150c133.333 0 200 66.667 200 200v1150h150v-1150c0 -233.333 -116.667 -350 -350 -350h-350c-233.333 0 -350 116.667 -350 350v1150h150v-1150c0 -133.333 66.667 -200 200 -200h350zM471 1773c0 -28 9.66699 -51.667 29 -71s43 -29 71 -29s51.667 9.66699 71 29
s29 43 29 71c0 26.667 -9.83301 49.834 -29.5 69.501s-43.167 29.5 -70.5 29.5s-50.833 -9.83301 -70.5 -29.5s-29.5 -42.834 -29.5 -69.501zM395 1773c0 50 17 91.999 51 125.999s75.667 51 125 51c50.667 0 93.167 -17.167 127.5 -51.5s51.5 -76.166 51.5 -125.499
c0 -50 -17.167 -92.167 -51.5 -126.5s-76.833 -51.5 -127.5 -51.5c-49.333 0 -91 17.167 -125 51.5s-51 76.5 -51 126.5z" />
    <glyph glyph-name="uring" unicode="&#x16f;" 
d="M50 1050h150v-700c0 -133.333 66.667 -200 200 -200h350c133.333 0 200 66.667 200 200v700h150v-700c0 -233.333 -116.667 -350 -350 -350h-350c-233.333 0 -350 116.667 -350 350v700zM474 1257c0 -28 9.66699 -51.667 29 -71s43 -29 71 -29s51.667 9.66699 71 29
s29 43 29 71c0 26.667 -9.83301 49.834 -29.5 69.501s-43.167 29.5 -70.5 29.5s-50.833 -9.83301 -70.5 -29.5s-29.5 -42.834 -29.5 -69.501zM398 1257c0 50 17 91.999 51 125.999s75.667 51 125 51c50.667 0 93.167 -17.167 127.5 -51.5s51.5 -76.166 51.5 -125.499
c0 -50 -17.167 -92.167 -51.5 -126.5s-76.833 -51.5 -127.5 -51.5c-49.333 0 -91 17.167 -125 51.5s-51 76.5 -51 126.5z" />
    <glyph glyph-name="Uhungarumlaut" unicode="&#x170;" 
d="M750 150c133.333 0 200 66.667 200 200v1150h150v-1150c0 -233.333 -116.667 -350 -350 -350h-350c-233.333 0 -350 116.667 -350 350v1150h150v-1150c0 -133.333 66.667 -200 200 -200h350zM813 1851l-343 -251h-170l343 251h170zM1150 1851l-343 -251h-170l343 251h170
z" />
    <glyph glyph-name="uhungarumlaut" unicode="&#x171;" 
d="M50 1050h150v-700c0 -133.333 66.667 -200 200 -200h350c133.333 0 200 66.667 200 200v700h150v-700c0 -233.333 -116.667 -350 -350 -350h-350c-233.333 0 -350 116.667 -350 350v700zM813 1401l-343 -251h-170l343 251h170zM1150 1401l-343 -251h-170l343 251h170z
" />
    <glyph glyph-name="Uogonek" unicode="&#x172;" horiz-adv-x="0" 
 />
    <glyph glyph-name="uogonek" unicode="&#x173;" horiz-adv-x="0" 
 />
    <glyph glyph-name="Wcircumflex" unicode="&#x174;" horiz-adv-x="1650" 
d="M1072 0l-272 1176l-272 -1176h-156l-347 1500h153l272 -1176l272 1176h156l272 -1176l272 1176h153l-347 -1500h-156zM879 1851l202 -251h-129l-202 251h129zM881 1851l-202 -251h-129l203 251h128z" />
    <glyph glyph-name="wcircumflex" unicode="&#x175;" horiz-adv-x="1800" 
d="M402 0l-377 1050h161l302 -842l301 842h172l302 -842l301 842h161l-378 -1050h-170l-302 841l-303 -841h-170zM948 1401l202 -251h-129l-202 251h129zM950 1401l-202 -251h-129l203 251h128z" />
    <glyph glyph-name="Ycircumflex" unicode="&#x176;" 
d="M675 750v-750h-175v750l-452 750h175l365 -605l364 605h175zM651 1801l202 -251h-129l-202 251h129zM653 1801l-202 -251h-129l203 251h128z" />
    <glyph glyph-name="ycircumflex" unicode="&#x177;" 
d="M50 1050h150.001v-700c0 -133.333 66.667 -200 200 -200h350c133.333 0 200 66.667 200 200v700h150v-1150c0 -233.333 -116.667 -350 -350 -350h-700v150h700c133.333 0 200 66.667 200 200v142c-52.667 -28 -119.334 -42 -200.001 -42h-350
c-233.333 0 -350 116.667 -350 350v700zM638.001 1351l202 -251h-129l-202 251h129zM640.001 1351l-202 -251h-129l203 251h128z" />
    <glyph glyph-name="Ydieresis" unicode="&#x178;" 
d="M675 750v-750h-175v750l-452 750h175l365 -605l364 605h175zM450 1600c-66.667 0 -100 33.333 -100 100s33.333 100 100 100s100 -33.333 100 -100s-33.333 -100 -100 -100zM750 1600c-66.667 0 -100 33.333 -100 100s33.333 100 100 100s100 -33.333 100 -100
s-33.333 -100 -100 -100z" />
    <glyph glyph-name="Zacute" unicode="&#x179;" 
d="M224 150h876v-150h-1050v166l871 1184h-871v150h1050v-160zM1000 1851l-343 -251h-170l343 251h170z" />
    <glyph glyph-name="zacute" unicode="&#x17a;" 
d="M874 900h-824v150h1050v-150l-826 -750h826v-150h-1050v150zM1000 1401l-343 -251h-170l343 251h170z" />
    <glyph glyph-name="Zdotaccent" unicode="&#x17b;" 
d="M224 150h876v-150h-1050v166l871 1184h-871v150h1050v-160zM575 1600c-66.667 0 -100 33.333 -100 100s33.333 100 100 100s100 -33.333 100 -100s-33.333 -100 -100 -100z" />
    <glyph glyph-name="zdotaccent" unicode="&#x17c;" 
d="M874 900h-824v150h1050v-150l-826 -750h826v-150h-1050v150zM575 1150c-66.667 0 -100 33.333 -100 100s33.333 100 100 100s100 -33.333 100 -100s-33.333 -100 -100 -100z" />
    <glyph glyph-name="Zcaron" unicode="&#x17d;" 
d="M224 150h876v-150h-1050v166l871 1184h-871v150h1050v-160zM500 1600l202 251h129l-202 -251h-129zM503 1600l-203 251h129l202 -251h-128z" />
    <glyph glyph-name="zcaron" unicode="&#x17e;" 
d="M874 900h-824v150h1050v-150l-826 -750h826v-150h-1050v150zM500 1150l202 251h129l-202 -251h-129zM503 1150l-203 251h129l202 -251h-128z" />
    <glyph glyph-name="longs" unicode="&#x17f;" horiz-adv-x="0" 
 />
    <glyph glyph-name="uni0180" unicode="&#x180;" horiz-adv-x="0" 
 />
    <glyph glyph-name="circumflex" unicode="&#x2c6;" horiz-adv-x="675" 
d="M379 1351l202 -251h-129l-202 251h129zM381 1351l-202 -251h-129l203 251h128z" />
    <glyph glyph-name="caron" unicode="&#x2c7;" horiz-adv-x="675" 
d="M250 1100l202 251h129l-202 -251h-129zM253 1100l-203 251h129l202 -251h-128z" />
    <glyph glyph-name="uni02C9" unicode="&#x2c9;" horiz-adv-x="1024" 
d="M254 1195v125h516v-125h-516z" />
    <glyph glyph-name="breve" unicode="&#x2d8;" horiz-adv-x="1024" 
d="M219 1349l50.998 0.00292969c11.333 -48.667 36.333 -84.334 75 -107.001s94.334 -34 167.001 -34s128 11.167 166 33.5s62.667 58.166 74 107.499h51c-13.333 -88.667 -44.666 -155.834 -93.999 -201.501s-115 -68.5 -197 -68.5c-81.333 0 -147 23 -197 69
s-82 113 -96 201z" />
    <glyph glyph-name="dotaccent" unicode="&#x2d9;" horiz-adv-x="350" 
d="M150 1050c-66.667 0 -100 33.333 -100 100s33.333 100 100 100s100 -33.333 100 -100s-33.333 -100 -100 -100z" />
    <glyph glyph-name="ring" unicode="&#x2da;" horiz-adv-x="1024" 
d="M411 1257c0 -28 9.66699 -51.667 29 -71s43 -29 71 -29s51.667 9.66699 71 29s29 43 29 71c0 26.667 -9.83301 49.834 -29.5 69.501s-43.167 29.5 -70.5 29.5s-50.833 -9.83301 -70.5 -29.5s-29.5 -42.834 -29.5 -69.501zM335 1257c0 50 17 91.999 51 125.999
s75.667 51 125 51c50.667 0 93.167 -17.167 127.5 -51.5s51.5 -76.166 51.5 -125.499c0 -50 -17.167 -92.167 -51.5 -126.5s-76.833 -51.5 -127.5 -51.5c-49.333 0 -91 17.167 -125 51.5s-51 76.5 -51 126.5z" />
    <glyph glyph-name="ogonek" unicode="&#x2db;" horiz-adv-x="1024" 
d="M640 0c-47.333 -41.333 -84.168 -81.1699 -110.501 -119.503s-39.5 -75.833 -39.5 -112.5c0 -31.333 9 -56.333 27 -75s42.333 -28 73 -28c26.667 0 49.834 5.16699 69.501 15.5s36.167 26.5 49.5 48.5l28 -16c-24 -42 -54.167 -74.333 -90.5 -97
s-76.166 -34 -119.499 -34c-46.667 0 -84.667 11.833 -114 35.5s-44 53.834 -44 90.501c0 50.667 20.167 102.834 60.5 156.501s94.166 98.834 161.499 135.501h49z" />
    <glyph glyph-name="tilde" unicode="&#x2dc;" horiz-adv-x="1024" 
d="M808 1382c-13.333 -68.667 -36.1689 -120 -68.502 -154s-74.5 -51 -126.5 -51h-4c-33.333 0 -71 7.66699 -113 23c-44 16 -82 24 -114 24c-26 0 -46.167 -6.83301 -60.5 -20.5s-25.5 -37.5 -33.5 -71.5h-54c12.667 70.667 35.334 123.5 68.001 158.5
s75.667 52.5 129 52.5c30.667 -0.666992 68.334 -8.66699 113.001 -24c42.667 -15.333 80 -23 112 -23h4c24 0 43.333 6.66699 58 20s26.667 35.333 36 66h54z" />
    <glyph glyph-name="hungarumlaut" unicode="&#x2dd;" horiz-adv-x="1000" 
d="M563 1351l-343 -251h-170l343 251h170zM900 1351l-343 -251h-170l343 251h170z" />
    <glyph glyph-name="endash" unicode="&#x2013;" horiz-adv-x="1108" 
d="M56 419v120h996v-120h-996z" />
    <glyph glyph-name="emdash" unicode="&#x2014;" horiz-adv-x="2048" 
d="M0 419v120h2048v-120h-2048z" />
    <glyph glyph-name="quoteleft" unicode="&#x2018;" horiz-adv-x="400" 
d="M302 1425c-86 -56 -129.001 -123.667 -129.001 -203c9.33301 -98 38.333 -175.667 87 -233c-45.333 0 -91.666 39.167 -138.999 117.5s-71 153.833 -71 226.5c0 57.333 14.833 107.833 44.5 151.5s59.167 65.5 88.5 65.5z" />
    <glyph glyph-name="quoteright" unicode="&#x2019;" horiz-adv-x="400" 
d="M169 1550c29.333 0 58.832 -21.833 88.499 -65.5s44.5 -94.167 44.5 -151.5c0 -72.667 -23.667 -148.167 -71 -226.5s-93.666 -117.5 -138.999 -117.5c48.667 57.333 77.667 135 87 233c0 79.333 -43 147 -129 203z" />
    <glyph glyph-name="quotesinglbase" unicode="&#x201a;" horiz-adv-x="400" 
d="M163 258c29.333 0 58.832 -21.833 88.499 -65.5s44.5 -94.167 44.5 -151.5c0 -72.667 -23.667 -148.167 -71 -226.5s-93.666 -117.5 -138.999 -117.5c48.667 57.333 77.667 135 87 233c0 79.333 -43 147 -129 203z" />
    <glyph glyph-name="quotedblleft" unicode="&#x201c;" horiz-adv-x="750" 
d="M302 1425c-86 -56 -129.001 -123.667 -129.001 -203c9.33301 -98 38.333 -175.667 87 -233c-45.333 0 -91.666 39.167 -138.999 117.5s-71 153.833 -71 226.5c0 57.333 14.833 107.833 44.5 151.5s59.167 65.5 88.5 65.5zM651.999 1425
c-86 -56 -129.001 -123.667 -129.001 -203c9.33301 -98 38.333 -175.667 87 -233c-45.333 0 -91.666 39.167 -138.999 117.5s-71 153.833 -71 226.5c0 57.333 14.833 107.833 44.5 151.5s59.167 65.5 88.5 65.5z" />
    <glyph glyph-name="quotedblright" unicode="&#x201d;" horiz-adv-x="750" 
d="M169 1550c29.333 0 58.832 -21.833 88.499 -65.5s44.5 -94.167 44.5 -151.5c0 -72.667 -23.667 -148.167 -71 -226.5s-93.666 -117.5 -138.999 -117.5c48.667 57.333 77.667 135 87 233c0 79.333 -43 147 -129 203zM516.999 1550c29.333 0 58.832 -21.833 88.499 -65.5
s44.5 -94.167 44.5 -151.5c0 -72.667 -23.667 -148.167 -71 -226.5s-93.666 -117.5 -138.999 -117.5c48.667 57.333 77.667 135 87 233c0 79.333 -43 147 -129 203z" />
    <glyph glyph-name="quotedblbase" unicode="&#x201e;" horiz-adv-x="750" 
d="M163 258c29.333 0 58.832 -21.833 88.499 -65.5s44.5 -94.167 44.5 -151.5c0 -72.667 -23.667 -148.167 -71 -226.5s-93.666 -117.5 -138.999 -117.5c48.667 57.333 77.667 135 87 233c0 79.333 -43 147 -129 203zM518.999 250c29.333 0 58.832 -21.833 88.499 -65.5
s44.5 -94.167 44.5 -151.5c0 -72.667 -23.667 -148.167 -71 -226.5s-93.666 -117.5 -138.999 -117.5c48.667 57.333 77.667 135 87 233c0 79.333 -43 147 -129 203z" />
    <glyph glyph-name="dagger" unicode="&#x2020;" horiz-adv-x="1014" 
d="M486 1022c-5.33301 64.667 -23.332 123.999 -53.999 177.999c-38 67.333 -57 110.333 -57 129c0 32.667 12 58.834 36 78.501s56 29.5 96 29.5c38 0 69.5 -9.16699 94.5 -27.5s37.5 -42.166 37.5 -71.499c0 -21.333 -18.333 -67 -55 -137
c-30.667 -56.667 -49 -116.334 -55 -179.001c64 5.33301 123 23.333 177 54c67.333 38 110.333 57 129 57c32.667 0 59 -12 79 -36s30 -56 30 -96c0 -38 -9.16699 -69.5 -27.5 -94.5s-42.5 -37.5 -72.5 -37.5c-21.333 0 -66.666 18.333 -135.999 55
c-56.667 30.667 -116.334 49.667 -179.001 57c5.33301 -117.333 42 -209.666 110 -276.999c-70.667 -306.667 -108 -631.334 -112 -974.001h-38c-4 342.667 -42 667.334 -114 974.001c68 67.333 105 159.666 111 276.999c-64 -6.66699 -123.333 -25 -178 -55
c-67.333 -38 -110.333 -57 -129 -57c-32.667 0 -58.834 12 -78.501 36s-29.5 56 -29.5 96c0 38 9.16699 69.5 27.5 94.5s42.166 37.5 71.499 37.5c21.333 0 67 -18.667 137 -56c56.667 -30.667 116.334 -49 179.001 -55z" />
    <glyph glyph-name="daggerdbl" unicode="&#x2021;" horiz-adv-x="1014" 
d="M528 186c62.667 7.33301 122.334 26.3311 179.001 56.998c69.333 36.667 114.666 55 135.999 55c30 0 54.167 -12.5 72.5 -37.5s27.5 -56.5 27.5 -94.5c0 -40 -10 -72 -30 -96s-46.333 -36 -79 -36c-18.667 0 -61.667 19 -129 57c-54 30.667 -113 48.667 -177 54
c6 -62.667 24.333 -122.334 55 -179.001c36.667 -70 55 -115.667 55 -137c0 -29.333 -12.5 -53.166 -37.5 -71.499s-56.5 -27.5 -94.5 -27.5c-40 0 -72 9.83301 -96 29.5s-36 45.834 -36 78.501c0 18.667 19 61.667 57 129c30.667 54 48.667 113.333 54 178
c-62.667 -6 -122.334 -24.333 -179.001 -55c-70 -37.333 -115.667 -56 -137 -56c-29.333 0 -53.166 12.5 -71.499 37.5s-27.5 56.5 -27.5 94.5c0 40 9.83301 72 29.5 96s45.834 36 78.501 36c18.667 0 61.667 -19 129 -57c54.667 -30 114 -48.333 178 -55
c-6 150.667 -43 283.334 -111 398.001c68 114 105 246.333 111 397c-64 -6.66699 -123.333 -25 -178 -55c-67.333 -38 -110.333 -57 -129 -57c-32.667 0 -58.834 12 -78.501 36s-29.5 56 -29.5 96c0 38 9.16699 69.5 27.5 94.5s42.166 37.5 71.499 37.5
c21.333 0 67 -18.667 137 -56c56.667 -30.667 116.334 -49 179.001 -55c-5.33301 64.667 -23.333 124 -54 178c-38 67.333 -57 110.333 -57 129c0 32.667 12 58.834 36 78.501s56 29.5 96 29.5c38 0 69.5 -9.16699 94.5 -27.5s37.5 -42.166 37.5 -71.499
c0 -21.333 -18.333 -67 -55 -137c-30.667 -56.667 -49 -116.334 -55 -179.001c64 5.33301 123 23.333 177 54c67.333 38 110.333 57 129 57c32.667 0 59 -12 79 -36s30 -56 30 -96c0 -38 -9.16699 -69.5 -27.5 -94.5s-42.5 -37.5 -72.5 -37.5
c-21.333 0 -66.666 18.333 -135.999 55c-56.667 30.667 -116.334 49.667 -179.001 57c5.33301 -150.667 42 -283 110 -397c-68 -114.667 -104.667 -247.334 -110 -398.001z" />
    <glyph glyph-name="bullet" unicode="&#x2022;" horiz-adv-x="1024" 
d="M216 718c0 82 28.999 151.666 86.999 208.999s128 86 210 86c81.333 0 150.833 -28.833 208.5 -86.5s86.5 -127.167 86.5 -208.5s-29.167 -151.166 -87.5 -209.499s-128.166 -87.5 -209.499 -87.5c-82 0 -151.667 29 -209 87s-86 128 -86 210z" />
    <glyph glyph-name="ellipsis" unicode="&#x2026;" horiz-adv-x="1150" 
d="M150 0c-66.667 0 -100 33.333 -100 100s33.333 100 100 100s100 -33.333 100 -100s-33.333 -100 -100 -100zM550 0c-66.667 0 -100 33.333 -100 100s33.333 100 100 100s100 -33.333 100 -100s-33.333 -100 -100 -100zM950 0c-66.667 0 -100 33.333 -100 100
s33.333 100 100 100s100 -33.333 100 -100s-33.333 -100 -100 -100z" />
    <glyph glyph-name="guilsinglleft" unicode="&#x2039;" horiz-adv-x="631" 
d="M174 479l342 303h14v-37l-205 -266l205 -266v-37h-14z" />
    <glyph glyph-name="guilsinglright" unicode="&#x203a;" horiz-adv-x="631" 
d="M115 176h-14v37l205 266l-205 266v37h14l342 -303z" />
    <glyph glyph-name="fraction" unicode="&#x2044;" horiz-adv-x="342" 
d="M-342 -29l940 1461h84l-938 -1461h-86z" />
    <glyph glyph-name="fraction" unicode="&#x2215;" horiz-adv-x="342" 
d="M-342 -29l940 1461h84l-938 -1461h-86z" />
    <glyph glyph-name="franc" unicode="&#x20a3;" horiz-adv-x="1014" 
d="M247 357h-194.001v60h194v732c0 156.667 -34.333 235 -103 235h-96v50h915l103 -231h-49c-39.333 121.333 -102.666 182 -189.999 182l-316 -1c-68 0 -102 -78.333 -102 -235v-352h361c66.667 0 100 21 100 63v58h50v-342h-50v60c0 41.333 -33.333 62 -100 62h-361v-281
h194v-60h-194v-72c0 -156.667 34 -235 102 -235h97v-50h-560v50h96c68.667 0 103 78.333 103 235v72z" />
    <glyph glyph-name="lira" unicode="&#x20a4;" horiz-adv-x="1014" 
d="M748 1347c-48 20.667 -101.333 30.999 -160 30.999h-2c-66.667 0 -130 -33.667 -190 -101c-56 -62 -84 -142.333 -84 -241c0 -10 0.333008 -20 1 -30c0 -70.667 11 -141.667 33 -213h380v-60h-360c8 -20 16.667 -40 26 -60h352v-60h-321c23.333 -42 35 -88 35 -138
c0 -107.333 -54 -232.333 -162 -375h402c86.667 0 149.667 44 189 132l49 -1l-103 -231h-719l1 50c124.667 158.667 187 298 187 418c0 51.333 -11.333 99 -34 143l-2 2h-172v60h143l-26 60h-135v60h113c-24 71.333 -36 135.666 -36 192.999
c0 150.667 41.167 266.334 123.5 347.001s185.833 121 310.5 121c50 0 111.833 -4.66699 185.5 -14s110.5 -20.666 110.5 -33.999v-161h-58c-3.33301 40.667 -29 74.667 -77 102z" />
    <glyph glyph-name="Euro" unicode="&#x20ac;" horiz-adv-x="1014" 
d="M140 372c-41.333 90 -66.6641 183.667 -75.9971 281h-108l17 60h87v29c0 10.667 0.333008 21 1 31h-71l17 60h58c9.33301 96.667 34.666 190.334 75.999 281.001c54 118.667 129.333 210 226 274s196 96 298 96c28.667 0 57.667 -2.66699 87 -8
c26.667 -6.66699 54 -16.334 82 -29.001c5.33301 -4 10.666 -6 15.999 -6c13.333 0 24.666 15 33.999 45h41l84 -281l-40 -1c-32.667 89.333 -78.667 148.666 -138 177.999c-28.667 14.667 -55.667 25.334 -81 32.001v3c-33.333 10.667 -67 16 -101 16
c-11.333 0 -22.666 -0.666992 -33.999 -2c-80 -8 -155.333 -45.833 -226 -113.5s-123 -158.834 -157 -273.501c-21.333 -69.333 -34.333 -139.666 -39 -210.999h706l-17 -60h-692c0 -20 0.666992 -40 2 -60h674l-17 -60h-652c11.333 -105.333 39 -204.666 83 -297.999
c49.333 -104.667 113.666 -183.334 192.999 -236.001c68 -45.333 140 -68.333 216 -69c124 2 209.333 32.333 256 91c49.333 60.667 74 122.334 74 185.001h48v-143c0 -46.667 -37 -89 -111 -127c-70 -36 -159 -54.667 -267 -56c-120.667 0 -229.167 32.667 -325.5 98
s-170.833 156.666 -223.5 273.999z" />
    <glyph glyph-name="trademark" unicode="&#x2122;" horiz-adv-x="1497" 
 />
    <glyph glyph-name="minus" unicode="&#x2212;" horiz-adv-x="1014" 
d="M87 647v140h839l1 -1v-139h-840z" />
    <glyph glyph-name="infinity" unicode="&#x221e;" horiz-adv-x="1350" 
d="M550 500v25c0 200 -58.333 300 -175 300s-175 -91.667 -175 -275v-50c0 -183.333 58.333 -275 175 -275s175 91.667 175 275zM1100 575c0 166.667 -66.667 250 -200 250s-200 -83.333 -200 -250v-100c0 -166.667 66.667 -250 200 -250s200 83.333 200 250v100zM1250 475
c0 -266.667 -116.667 -400 -350 -400c-114.667 0 -206.667 45.333 -276 136c-65.333 -90.667 -148.333 -136 -249 -136c-216.667 0 -325 141.667 -325 425v50c0 283.333 108.333 425 325 425c98.667 0 180.667 -46.333 246 -139c68.667 92.667 161.667 139 279 139
c233.333 0 350 -133.333 350 -400v-100z" />
    <glyph glyph-name="approxequal" unicode="&#x2248;" horiz-adv-x="1014" 
d="M923 1053l-0.00195312 -156c-42 -48 -82.667 -80.5 -122 -97.5s-78 -25.5 -116 -25.5c-40 0 -99.167 16.167 -177.5 48.5s-137.166 48.5 -176.499 48.5c-34 0 -69.833 -9.33301 -107.5 -28s-80.834 -56 -129.501 -112v156c42.667 48.667 83.667 81.667 123 99
s77.333 26 114 26c42.667 0 103.167 -16.5 181.5 -49.5s135.833 -49.5 172.5 -49.5c34.667 0 70.834 9.33301 108.501 28s80.834 56 129.501 112zM922.998 705l-0.00195312 -156c-42 -48 -82.667 -80.5 -122 -97.5s-78 -25.5 -116 -25.5c-40 0 -99.167 16.167 -177.5 48.5
s-137.166 48.5 -176.499 48.5c-34 0 -69.833 -9.33301 -107.5 -28s-80.834 -56 -129.501 -112v156c42.667 48.667 83.667 81.667 123 99s77.333 26 114 26c42.667 0 103.167 -16.5 181.5 -49.5s135.833 -49.5 172.5 -49.5c34.667 0 70.834 9.33301 108.501 28
s80.834 56 129.501 112z" />
    <glyph glyph-name="lessequal" unicode="&#x2264;" horiz-adv-x="1014" 
d="M927 1074l-625 -359l625 -355v-167l-840 481v83l840 484v-167zM87 1v140h839l1 -1v-139h-840z" />
    <glyph glyph-name="greaterequal" unicode="&#x2265;" horiz-adv-x="1014" 
d="M87 1241l840 -484v-83l-840 -481v167l625 355l-625 359v167zM87 2v140h839l1 -1v-139h-840z" />
    <glyph glyph-name=".null" horiz-adv-x="0" 
 />
    <glyph glyph-name="nonmarkingreturn" horiz-adv-x="500" 
 />
    </font>
</defs>
</svg>
